<?xml version="1.0" encoding="utf-8"?>
<!-- Generator: Adobe Illustrator 20.0.0, SVG Export Plug-In . SVG Version: 6.00 Build 0)  -->
<svg version="1.1" id="Layer_1" xmlns="http://www.w3.org/2000/svg" xmlns:xlink="http://www.w3.org/1999/xlink" x="0px" y="0px"
	 viewBox="0 0 750 884.4" style="enable-background:new 0 0 750 884.4;" xml:space="preserve">
<style type="text/css">
	.st0{display:none;}
	.st1{display:inline;}
	.st2{fill:none;stroke:#000000;stroke-width:1.0309;stroke-linecap:round;stroke-linejoin:round;stroke-dasharray:10.0835,10.0835;}
	.st3{fill:none;stroke:#000000;stroke-width:1.0309;stroke-linecap:round;stroke-linejoin:round;}
	.st4{fill:none;stroke:#000000;stroke-width:1.0309;stroke-linecap:round;stroke-linejoin:round;stroke-dasharray:10.6649,10.6649;}
	.st5{fill:none;stroke:#000000;stroke-width:1.0309;stroke-linecap:round;stroke-linejoin:round;stroke-dasharray:7.4921,7.4921;}
	.st6{fill:none;stroke:#000000;stroke-width:1.0309;stroke-linecap:round;stroke-linejoin:round;stroke-dasharray:6.9695,6.9695;}
	.st7{fill:none;stroke:#000000;stroke-width:1.0309;stroke-linecap:round;stroke-linejoin:round;stroke-dasharray:7.3964,7.3964;}
	.st8{fill:none;stroke:#000000;stroke-width:1.0309;stroke-linecap:round;stroke-linejoin:round;stroke-dasharray:7.1113,7.1113;}
	.st9{fill:none;stroke:#000000;stroke-width:1.0309;stroke-linecap:round;stroke-linejoin:round;stroke-dasharray:10.1066,10.1066;}
	.st10{fill:none;stroke:#000000;stroke-width:1.0309;stroke-linecap:round;stroke-linejoin:round;stroke-dasharray:5.8858,5.8858;}
	.st11{fill:#DBDBDB;}
	.st12{fill:#6D9CCA;}
	.st13{fill:#78AAD6;}
	.st14{fill:#345589;}
	.st15{fill:#295384;}
	.st16{fill:#4B72A7;}
	.st17{fill:#C4C4C4;}
	.st18{fill:#6293BC;}
	.st19{fill:#213D7A;}
	.st20{fill:#FFFFFF;}
	.st21{fill:none;stroke:#FFFFFF;stroke-width:1.0309;stroke-miterlimit:10;}
	.st22{fill:none;stroke:#213D7A;stroke-width:1.0309;stroke-miterlimit:10;}
	.st23{fill:none;stroke:#78AAD6;stroke-width:1.0309;stroke-miterlimit:10;}
	.st24{fill:none;stroke:#4B72A7;stroke-width:1.0309;stroke-miterlimit:10;}
	.st25{display:none;fill:#FB650A;}
	.st26{fill:#FB650A;}
</style>
<g id="Calque_3">
	<g>
		<g>
			<path d="M232.3,4.6c-0.1,0-0.3,0-0.4-0.1c-1-1.2-2.4-2.4-3.7-3.6c-0.1-0.1-0.3-0.4,0-0.7c0.1-0.1,0.4-0.3,0.7,0
				c1.3,1.2,2.7,2.4,3.7,3.6c0.1,0.1,0.1,0.6,0,0.7C232.6,4.6,232.4,4.6,232.3,4.6z"/>
		</g>
		<g>
			<path d="M239.8,85.1c-0.1,0-0.4-0.1-0.4-0.3c-0.6-1.5-1.3-2.8-2.4-4c-1.5-1.9-2.4-3.9-2.7-5.7c0-0.3,0.1-0.6,0.4-0.6
				s0.6,0.1,0.6,0.4c0.3,1.6,1,3.4,2.5,5.2c1,1.3,1.8,2.8,2.4,4.3C240.4,84.8,240.3,85.1,239.8,85.1L239.8,85.1z M238.5,65.6
				c-0.1,0-0.1,0-0.3-0.1c-0.3-0.1-0.3-0.4-0.1-0.7c1.2-1.8,1.8-3.4,1.8-5.1c0-1.5-0.4-3-1.2-4.6c-0.1-0.3,0-0.6,0.3-0.7
				s0.6,0,0.7,0.3c0.9,1.8,1.3,3.6,1.3,5.1c0,1.9-0.6,3.7-1.9,5.7C238.8,65.6,238.6,65.6,238.5,65.6z M235.8,45.1
				c-0.3,0-0.4-0.1-0.4-0.4c0-0.4,0-0.9,0-1.3c0-2.8,0.6-5.5,1.9-8.2c0.1-0.3,0.3-0.6,0.4-0.9l0.1-0.3c0.1-0.3,0.4-0.3,0.7-0.3
				c0.3,0.1,0.3,0.4,0.3,0.7l-0.1,0.3c-0.1,0.3-0.3,0.6-0.4,0.9c-1.2,2.5-1.8,5.1-1.8,7.7c0,0.4,0,0.9,0,1.3
				C236.3,44.8,236.1,45.1,235.8,45.1L235.8,45.1z M240.6,24.1L240.6,24.1c-0.3,0-0.4-0.3-0.4-0.4v-0.3c0-3.4-0.7-6.8-2.1-10.1
				c-0.1-0.3,0-0.6,0.3-0.7s0.6,0,0.7,0.3c1.5,3.3,2.2,6.8,2.2,10.4v0.3C241,24,240.9,24.1,240.6,24.1z"/>
		</g>
		<g>
			<path d="M241.2,100.8c-0.3,0-0.4-0.1-0.4-0.4c0-0.3-0.1-0.6-0.1-0.9c-0.1-0.7-0.4-1.6-0.3-2.4c0.1-0.6,0.3-1.3,0.4-1.9
				c0-0.3,0.3-0.4,0.6-0.4s0.4,0.3,0.4,0.6c-0.1,0.7-0.3,1.3-0.4,2.1c-0.1,0.4,0,1.2,0.3,1.8c0.1,0.3,0.1,0.7,0.3,1
				C241.8,100.5,241.6,100.8,241.2,100.8C241.3,100.8,241.2,100.8,241.2,100.8z"/>
		</g>
	</g>
	<g>
		<g>
			<path d="M661.8,132.1L661.8,132.1c-0.3,0-0.6-0.3-0.4-0.6c0.1-1.8,0.3-3.4,0.1-5.1c0-0.3,0.1-0.6,0.4-0.6s0.6,0.1,0.6,0.4
				c0.1,1.8,0,3.4-0.1,5.2C662.4,131.9,662.1,132.1,661.8,132.1z"/>
		</g>
		<g>
			<path d="M659.4,116.7c-0.1,0-0.4-0.1-0.4-0.3l-0.3-0.9c-1.2-3.1-2.2-5.9-2.7-9.2c0-0.3,0.1-0.6,0.4-0.6c0.3,0,0.6,0.1,0.6,0.4
				c0.3,3.1,1.3,5.9,2.5,8.9l0.3,0.9c0.1,0.3,0,0.6-0.3,0.6C659.6,116.7,659.6,116.7,659.4,116.7z M658.4,96.5c-0.1,0-0.1,0-0.3,0
				c-0.3-0.1-0.3-0.4-0.3-0.7l0.1-0.3c0.1-0.3,0.3-0.6,0.4-0.9c0.4-1,0.7-2.5,0.7-4.6c0-1.2-0.1-2.7-0.3-4.2c0-0.3,0.1-0.6,0.4-0.6
				s0.6,0.1,0.6,0.4c0.1,1.6,0.3,3,0.3,4.3c0,2.2-0.3,3.9-0.9,5.1c-0.1,0.3-0.3,0.6-0.4,0.9l-0.1,0.3
				C658.9,96.4,658.7,96.5,658.4,96.5z M657.7,75.9c-0.3,0-0.4-0.1-0.4-0.4c-0.7-3.4-1.8-6.8-2.8-10.1c-0.1-0.3,0-0.6,0.3-0.6
				c0.3-0.1,0.6,0,0.6,0.3c1,3.3,2.1,6.8,2.8,10.1C658.3,75.6,658.1,75.7,657.7,75.9C657.8,75.9,657.7,75.9,657.7,75.9z M650.8,55.9
				c-0.1,0-0.4-0.1-0.4-0.3c-0.4-1.3-0.7-2.5-0.7-3.7c0-2.2,0.7-4.3,2.5-6.5c0.1-0.3,0.4-0.3,0.7-0.1c0.3,0.1,0.3,0.4,0.1,0.7
				c-1.6,2.1-2.4,4-2.4,5.9c0,1,0.3,2.2,0.7,3.4c0.1,0.3,0,0.6-0.3,0.6C651,55.9,651,55.9,650.8,55.9z M655.4,36.5
				c-0.3,0-0.4-0.1-0.4-0.4c-0.4-1.5-1.2-3-2.4-4.6c-1-1.5-1.9-3-2.5-4.6c-0.1-0.3,0-0.6,0.3-0.7c0.3-0.1,0.6,0,0.7,0.3
				c0.6,1.5,1.5,3,2.5,4.5c1.2,1.8,2.1,3.3,2.5,4.9C656,36,655.9,36.3,655.4,36.5C655.6,36.5,655.6,36.5,655.4,36.5z"/>
		</g>
		<g>
			<path d="M649.3,16.8L649.3,16.8c-0.3,0-0.6-0.3-0.4-0.6c0.1-0.7,0.3-1.3,0.4-2.1c0.1-0.4,0-1.2-0.3-1.8c-0.1-0.3-0.1-0.7-0.3-1
				c0-0.3,0.1-0.6,0.4-0.6s0.6,0.1,0.6,0.4c0,0.3,0.1,0.6,0.1,0.9c0.1,0.7,0.4,1.6,0.3,2.4c-0.1,0.6-0.3,1.3-0.4,1.9
				C649.8,16.7,649.6,16.8,649.3,16.8z"/>
		</g>
	</g>
	<g class="st0">
		<g class="st1">
			<path class="st3" d="M242.2,249.1c-0.3,1-2.1,1.8-4.3,2.5"/>
			<path class="st5" d="M230.6,253.2c-1.6,0.3-3,0.4-3.9,0.6c-2.4,0.3-4.8,0.6-7.3,1.2"/>
			<path class="st3" d="M215.8,255.6c-1.6,0.3-3.3,0.7-5.1,1c-1-1.3-2.1-2.7-3.3-4"/>
			<path class="st3" d="M205.5,250.1c-1-1.3-2.2-2.7-3.3-4c-1.8,0.1-3.4,0.4-5.1,0.6"/>
			<path class="st6" d="M190.2,246.9c-3.4-1.3-5.4-4.2-6.8-7.6"/>
			<path class="st3" d="M182.3,236c-0.4-1.6-1-3.3-1.5-4.9c-1.6,0.9-3.1,1.6-4.6,2.2"/>
			<path class="st7" d="M168.9,234.4c-3.7-0.1-7.1-1.2-10.6-3"/>
			<path class="st3" d="M155.2,229.5c-1.3-0.9-2.8-1.9-4.2-3.1c-1.5,0.7-3.1,1.5-4.6,2.2"/>
			<path class="st8" d="M139.6,230.5c-3.6,0.7-7,0.7-10.6,0"/>
			<path class="st3" d="M125.5,229.5c-1.5-0.6-3.1-1.3-4.6-2.2c-1.3,1-2.8,2.1-4.2,3"/>
			<path class="st9" d="M108.5,236.3c-3.9,2.8-7.9,5.7-11.7,8.5c-0.3,2.1-0.7,4-1,5.9c-0.6,3.6-3.1,5.7-6.2,6.7
				c-5.8,1.8-7.7,5.5-7.3,11.4c0.1,3-0.6,6.5-2.1,9.2c-2.2,4.2-9.1,6.4-13.7,4c-8.5-4.2-15.5-1.8-22.3,3.7
				c-3.4,2.7-7.1,4.9-10.9,7.3c-6.1,3.7-8.8,9.4-9.8,16.1c-0.7,4.6-1.9,6.1-6.1,6.5"/>
			<path class="st3" d="M12.6,316.1c-1.6,0.3-3.4,0.9-4.9,1.6"/>
		</g>
	</g>
	<g>
		<g>
			<path d="M301.1,802.2c-0.1,0-0.1,0-0.3-0.1c-0.3-0.1-0.3-0.4-0.1-0.7l0.3-0.3c0.9-1.3,1.8-2.7,2.7-3.9c0.1-0.3,0.4-0.3,0.7-0.1
				c0.3,0.1,0.3,0.4,0.1,0.7c-0.9,1.3-1.8,2.5-2.7,3.9l-0.3,0.3C301.4,802.1,301.2,802.2,301.1,802.2z"/>
		</g>
		<g>
			<path d="M285.5,832.5c-0.3,0-0.4-0.3-0.4-0.4v-0.3c0-2.8,0.4-5.7,1.5-8.5c0.1-0.3,0.4-0.4,0.6-0.3c0.3,0.1,0.4,0.4,0.3,0.6
				c-0.9,2.7-1.3,5.4-1.3,8.2v0.3C286.1,832.4,285.8,832.5,285.5,832.5L285.5,832.5z M290.8,816.3c-0.1,0-0.1,0-0.3-0.1
				c-0.3-0.1-0.3-0.4-0.1-0.7c1.2-1.8,2.5-3.7,4.5-6.1c0.3-0.3,0.6-0.6,0.7-1c0.1-0.3,0.4-0.3,0.7-0.1c0.3,0.1,0.3,0.4,0.1,0.7
				c-0.3,0.3-0.6,0.7-0.7,1c-1.9,2.4-3.3,4.2-4.3,5.9C291.1,816.2,291,816.3,290.8,816.3z"/>
		</g>
		<g>
			<path d="M282.1,845L282.1,845l-5.2-1c-0.3,0-0.4-0.3-0.4-0.6c0-0.3,0.3-0.4,0.6-0.4l4.8,0.9c0.3-0.4,0.6-1,1-1.5
				c0.6-0.7,1.2-1.6,1.6-2.5c0.1-0.3,0.4-0.3,0.7-0.1c0.3,0.1,0.3,0.4,0.1,0.7c-0.6,0.9-1.2,1.8-1.6,2.5c-0.4,0.6-0.9,1.2-1.2,1.8
				C282.4,845,282.2,845,282.1,845z"/>
		</g>
		<g>
			<path d="M269.3,847.9L269.3,847.9c-0.4-0.1-0.6-0.3-0.4-0.6c0.4-1.6,0.6-3.3,0.7-5.1c0-0.1,0.1-0.3,0.1-0.4
				c0.1-0.1,0.3-0.1,0.4-0.1l5.1,1c0.3,0,0.4,0.3,0.4,0.6c0,0.3-0.3,0.4-0.6,0.4l-4.5-0.9c-0.1,1.5-0.3,3.1-0.7,4.6
				C269.7,847.7,269.6,847.9,269.3,847.9z"/>
		</g>
		<g class="st0">
			<path class="st1" d="M210.7,893.2L210.7,893.2c-3.6,0-7.3-0.9-11.2-2.4c-0.3-0.1-0.4-0.4-0.3-0.7c0.1-0.3,0.4-0.4,0.7-0.3
				c3.9,1.5,7.3,2.4,10.9,2.4c0.3,0,0.4,0.3,0.4,0.6C211.3,892.9,211,893.2,210.7,893.2z M222,891.7c-0.3,0-0.4-0.1-0.4-0.4
				c0-0.3,0.1-0.6,0.4-0.6c1.2-0.1,2.4-0.3,3.3-0.4c3-0.1,4.3-1.2,5.4-3.9l0.1-0.3c0.1-0.3,0.4-0.4,0.6-0.3c0.3,0.1,0.4,0.4,0.3,0.6
				l-0.1,0.3c-1.2,3-2.8,4.3-6.2,4.5C224.2,891.4,223.2,891.6,222,891.7L222,891.7z M239.1,879.8c-0.1,0-0.3-0.1-0.4-0.3
				c-0.1-0.3,0-0.6,0.1-0.7c2.5-1.3,4.5-3.3,6.7-5.4l0.1-0.1c0.6-0.6,1.5-1,2.2-1.5c0.3-0.1,0.6,0,0.7,0.3c0.1,0.3,0,0.6-0.3,0.7
				c-0.7,0.3-1.3,0.7-1.9,1.3l-0.1,0.1c-2.2,2.1-4.2,4-6.8,5.5C239.2,879.8,239.1,879.8,239.1,879.8z M257.4,866.7
				c-0.1,0-0.3,0-0.3-0.1c-0.1-0.1-0.3-0.4,0-0.7c2.4-2.7,5.1-5.7,7.1-8.6c0.1-0.3,0.4-0.3,0.7-0.1c0.3,0.1,0.3,0.4,0.1,0.7
				c-2.2,3.1-4.8,6.1-7.3,8.8C257.7,866.6,257.5,866.7,257.4,866.7z"/>
		</g>
		<g class="st0">
			<path class="st1" d="M182.9,887.6c-0.1,0-0.1,0-0.3,0c-0.3-0.1-0.3-0.4-0.1-0.7c0.7-1.5,1.5-3.1,2.2-4.6c0-0.1,0.1-0.3,0.3-0.3
				c0.1,0,0.3,0,0.4,0c1,0.6,2.1,1.2,3.1,1.8l1.5,0.7c0.3,0.1,0.3,0.4,0.1,0.7c-0.1,0.3-0.4,0.3-0.7,0.1l-1.5-0.7
				c-0.9-0.4-1.6-1-2.5-1.5c-0.6,1.3-1.3,2.8-2.1,4.2C183.3,887.6,183.2,887.6,182.9,887.6z"/>
		</g>
	</g>
	<g>
		<g>
			<path d="M2.8,566.7c-0.1,0-0.3,0-0.3-0.1c-0.1-0.1-0.3-0.4,0-0.7l3.3-4c0.1-0.1,0.4-0.3,0.7,0c0.3,0.3,0.3,0.4,0,0.7l-3.3,4
				C3.1,566.5,3,566.7,2.8,566.7z"/>
		</g>
		<g>
			<path d="M17.8,557.5C17.7,557.5,17.7,557.3,17.8,557.5c-0.3,0-0.4-0.1-0.4-0.3l-2.2-5.1l-2.7,3.3c-0.1,0.1-0.4,0.3-0.7,0
				c-0.1-0.1-0.3-0.4,0-0.7l3.3-4c0.1-0.1,0.3-0.1,0.4-0.1c0.1,0,0.3,0.1,0.4,0.3l2.2,5.2c1.5-1,2.7-1.8,3.7-2.7
				c0.3-0.1,0.6-0.1,0.7,0.1c0.1,0.3,0.1,0.6-0.1,0.7c-1.2,0.9-2.5,1.8-4.2,3C18,557.3,17.8,557.5,17.8,557.5z"/>
		</g>
		<g>
			<path d="M27.2,550.2c-0.1,0-0.3,0-0.3-0.1c-0.1-0.1-0.1-0.6,0-0.7c1.6-1.5,3-3.1,4.3-5.1c0.1-0.3,0.4-0.3,0.7-0.1
				c0.3,0.1,0.3,0.4,0.1,0.7c-1.3,1.9-2.8,3.6-4.5,5.2C27.5,550,27.4,550.2,27.2,550.2z"/>
		</g>
		<g>
			<path d="M34.9,539.2c-0.1,0-0.1,0-0.3,0c-0.3-0.1-0.3-0.4-0.1-0.7c0.7-1.3,1.5-2.8,2.4-4.6c0.1-0.1,0.3-0.3,0.4-0.3l5.8-0.4
				c0.1,0,0.4,0.1,0.4,0.3c0.7,1.3,1.5,2.7,2.1,4l0.3,0.6c0.1,0.3,0,0.6-0.3,0.7c-0.3,0.1-0.6,0-0.7-0.3l-0.3-0.6
				c-0.6-1.2-1.2-2.5-1.9-3.7l-5.2,0.4c-0.7,1.6-1.5,3-2.2,4.3C35.4,539,35.1,539.2,34.9,539.2z"/>
		</g>
		<g>
			<path d="M61.4,552.1c-0.1,0-0.3,0-0.4-0.1c-0.3-0.3-0.6-0.7-0.9-1.2c-0.4-0.9-1.9-1.6-3.1-1.8c-2.1-0.3-3.9-0.9-5.4-1.8
				c-0.3-0.1-0.3-0.4-0.1-0.7c0.1-0.3,0.4-0.3,0.7-0.1c1.3,0.9,3,1.5,4.9,1.6c1.3,0.1,3.1,1,3.9,2.2c0.1,0.3,0.4,0.7,0.7,0.9
				c0.1,0.1,0.1,0.6,0,0.7C61.7,552.1,61.6,552.1,61.4,552.1z M71.5,551.8c-0.1,0-0.4-0.1-0.4-0.3c-0.1-0.3,0-0.6,0.3-0.6
				c2.1-0.6,4.2-0.9,6.4-0.9l0,0c1.5,0,3,0.1,4.8,0.4c0.3,0,0.4,0.3,0.4,0.6s-0.3,0.4-0.6,0.4c-1.6-0.3-3.1-0.4-4.5-0.4l0,0
				c-2.1,0-4.2,0.3-6.1,0.9C71.7,551.7,71.5,551.8,71.5,551.8z"/>
		</g>
		<g>
			<path d="M98,555.4C97.8,555.4,97.8,555.4,98,555.4l-5.1-1.5c-0.3-0.1-0.4-0.3-0.3-0.6c0.1-0.3,0.3-0.4,0.6-0.3l4.6,1.3l3.6-3.3
				c0.1-0.1,0.6-0.1,0.7,0c0.1,0.1,0.1,0.6,0,0.7l-3.9,3.4C98.1,555.4,98,555.4,98,555.4z"/>
		</g>
		<g>
			<path d="M108.1,546.2c-0.1,0-0.3,0-0.4-0.1c-0.1-0.1-0.1-0.6,0-0.7l3.6-3.3c-0.3-1.5-0.7-2.8-1-4.2l-0.1-0.4
				c0-0.3,0.1-0.6,0.4-0.6c0.3,0,0.6,0.1,0.6,0.4l0.1,0.4c0.3,1.5,0.7,3,1.2,4.6c0,0.1,0,0.4-0.1,0.4l-3.9,3.4
				C108.4,546.2,108.2,546.2,108.1,546.2z"/>
		</g>
		<g>
			<path d="M108.7,528.2c-0.3,0-0.4-0.1-0.4-0.4c-0.1-1-0.1-2.1-0.1-2.8c0-2.8,0.9-4.5,3.1-6.4c0.1-0.1,0.6-0.1,0.7,0
				c0.1,0.1,0.1,0.6,0,0.7c-2.1,1.8-2.8,3.1-2.8,5.7c0,0.7,0,1.6,0.1,2.7C109.3,527.9,109,528.2,108.7,528.2L108.7,528.2z
				 M119.1,513.3c-0.1,0-0.3,0-0.3-0.1c-0.1-0.1-0.1-0.6,0-0.7c1.2-1,2.2-2.2,3.3-3.3c1-1,2.1-2.2,3.1-3.3c0,0,0.1-0.1,0.3-0.1
				s0.4-0.1,0.6-0.1c0.3,0,0.6,0.1,0.6,0.4c0,0.3-0.1,0.6-0.4,0.6c-0.1,0-0.3,0-0.4,0.1c-1,1-2.1,2.1-3,3.1c-1,1.2-2.2,2.2-3.3,3.4
				C119.4,513.3,119.3,513.3,119.1,513.3z M135.8,505.6c-0.3,0-0.4-0.1-0.4-0.4c0-0.3,0.1-0.6,0.4-0.6c2.4-0.6,4.2-1.8,5.7-3.7
				c0.4-0.7,1-1.3,1.3-2.1c0.1-0.3,0.4-0.3,0.7-0.1c0.3,0.1,0.3,0.4,0.1,0.7c-0.4,0.7-0.9,1.5-1.5,2.1
				C140.5,503.5,138.6,504.8,135.8,505.6C135.9,505.6,135.9,505.6,135.8,505.6z"/>
		</g>
		<g>
			<path d="M145,490.1c-0.3,0-0.4-0.1-0.4-0.4c-0.3-1.5-1-3-2.2-4.3c-0.1-0.1-0.1-0.4,0-0.6l3.3-4c0.1-0.1,0.4-0.3,0.7,0
				c0.1,0.1,0.3,0.4,0,0.7l-3,3.6c1,1.5,1.8,3,2.1,4.5C145.6,489.7,145.4,490,145,490.1C145.1,490.1,145,490.1,145,490.1z"/>
		</g>
		<g>
			<path d="M146.6,480.7c-0.1,0-0.3,0-0.3-0.1c-0.1-0.1-0.3-0.4,0-0.7l3.3-4c0.1-0.1,0.4-0.3,0.7,0c0.1,0.1,0.3,0.4,0,0.7l-3.3,4
				C146.9,480.7,146.8,480.7,146.6,480.7z"/>
		</g>
	</g>
	<g>
		<g>
			<path d="M433,780.7c-0.1,0-0.4-0.1-0.4-0.3l-0.3-1c-0.4-1.3-0.9-2.7-1.2-4c-0.1-0.3,0.1-0.6,0.3-0.6c0.3-0.1,0.6,0.1,0.6,0.3
				c0.3,1.3,0.7,2.7,1.2,3.9l0.3,1c0.1,0.3,0,0.6-0.3,0.6C433,780.7,433,780.7,433,780.7z"/>
		</g>
		<g>
			<path d="M462.1,842.2C462.1,842.2,462,842.2,462.1,842.2c-0.4,0-0.6-0.3-0.4-0.6c0.7-3.6,1.2-6.5,1.6-9.2c0-0.3,0.3-0.4,0.6-0.4
				c0.3,0,0.4,0.3,0.4,0.6l0,0c-0.4,2.7-0.9,5.7-1.6,9.2C462.6,842.1,462.4,842.2,462.1,842.2z M462.9,823.8c-0.1,0-0.4-0.1-0.4-0.3
				c-0.4-1.3-1-2.7-1.9-4.2c-0.9-1.5-1.8-2.5-3-3.1c-0.3-0.1-0.3-0.4-0.1-0.7c0.1-0.3,0.4-0.3,0.7-0.1c1.3,0.7,2.5,1.9,3.4,3.6
				c0.7,1.5,1.5,2.8,1.9,4.3c0.1,0.3,0,0.6-0.3,0.6C462.9,823.8,462.9,823.8,462.9,823.8z M449.3,812.3c-0.1,0-0.3,0-0.3-0.1
				c-2.2-1.9-4.5-3.7-6.7-5.7l-0.4-0.4c-0.1-0.1-0.3-0.4,0-0.7c0.1-0.1,0.4-0.3,0.7,0l0.4,0.4c2.2,1.9,4.5,3.7,6.7,5.7
				c0.1,0.1,0.3,0.4,0,0.7C449.6,812.3,449.5,812.3,449.3,812.3z M436.9,798.9c-0.1,0-0.4-0.1-0.4-0.3c-1-2.7-1.6-5.7-1.9-9.2
				c0-0.3,0.1-0.6,0.4-0.6c0.3,0,0.6,0.1,0.6,0.4c0.3,3.4,0.9,6.4,1.9,8.9c0.1,0.3,0,0.6-0.3,0.6C437,798.9,436.9,798.9,436.9,798.9
				z"/>
		</g>
		<g>
			<path d="M449,856.5c-0.1,0-0.3,0-0.3-0.1c-0.1-0.1-0.3-0.4,0-0.7l3.4-3.9c0.1-0.1,0.4-0.3,0.6-0.1l5.8,3.6
				c0.1-0.1,0.1-0.4,0.3-0.6c0.3-0.6,0.4-1,0.4-1.5c0.1-0.7,0.3-1.5,0.4-2.2c0-0.3,0.3-0.4,0.6-0.4c0.3,0,0.4,0.3,0.4,0.6
				c-0.1,0.7-0.3,1.5-0.4,2.2c-0.1,0.4-0.3,1-0.6,1.6c-0.1,0.3-0.3,0.7-0.4,1.2c0,0.1-0.1,0.3-0.3,0.3c-0.1,0-0.3,0-0.4,0l-5.9-3.6
				l-3.1,3.6C449.3,856.3,449.2,856.5,449,856.5z"/>
		</g>
		<g>
			<path d="M438.3,871.9c-0.1,0-0.3-0.1-0.4-0.1l-1.2-1.6c-0.1-0.1-0.1-0.4,0-0.6l3.4-3.9c0.1-0.1,0.4-0.3,0.7,0
				c0.1,0.1,0.3,0.4,0,0.7l-3.1,3.6l0.7,1c0.4-0.1,1-0.1,1.5-0.3c1.2-0.1,2.2-0.3,3.1-0.7c0.3-0.1,0.6,0,0.7,0.3
				c0.1,0.3,0,0.6-0.3,0.7c-1,0.4-2.2,0.7-3.4,0.9C439.5,871.7,438.9,871.8,438.3,871.9L438.3,871.9z"/>
		</g>
		<g>
			<path d="M460.2,868.4c-0.6,0-1,0-1.5-0.1c-1.3-0.4-2.7-0.6-3.9-0.7c-0.3,0-0.4-0.3-0.4-0.6c0-0.3,0.3-0.4,0.6-0.4
				c1.3,0.1,2.7,0.3,4.2,0.7c0.4,0.1,0.7,0.1,1.3,0.1c1.8,0,3.9-0.7,6.1-1.8c0.3-0.1,0.6,0,0.7,0.3c0.1,0.3,0,0.6-0.3,0.7
				C464.4,867.6,462.1,868.4,460.2,868.4z M486.4,866.7c-0.1,0-0.3,0-0.4-0.1c-0.4-0.4-0.7-1-1-1.5c-0.3-0.4-0.4-0.9-0.9-1.3
				c-2.7-3.3-4.3-4.2-6.8-3.3c-0.3,0.1-0.6,0-0.6-0.3c-0.1-0.3,0-0.6,0.3-0.6c3-1,5.1-0.1,8,3.6c0.3,0.4,0.6,0.9,0.9,1.3
				c0.3,0.4,0.6,1,0.9,1.3c0.1,0.1,0.1,0.6,0,0.7C486.5,866.7,486.4,866.7,486.4,866.7z"/>
		</g>
		<g>
			<path d="M497.1,867.3c-0.1,0-0.3-0.1-0.4-0.1c-0.1-0.3-0.1-0.6,0.1-0.7c1.2-0.7,2.2-1.6,3.1-2.4l0.9-0.7c0.1-0.1,0.3-0.1,0.4,0
				l4.9,1.8c0.3,0.1,0.4,0.4,0.3,0.6c-0.1,0.3-0.4,0.4-0.6,0.3l-4.6-1.6l-0.7,0.6c-0.9,0.7-2.1,1.5-3.1,2.4
				C497.2,867.3,497.2,867.3,497.1,867.3z"/>
		</g>
		<g class="st0">
			<path class="st1" d="M521,873.3c-0.1,0-0.3,0-0.3-0.1l-4.9-4.3l-0.1,0.3c-0.1,0.3-0.4,0.3-0.6,0.3l-4.9-1.8
				c-0.3-0.1-0.4-0.4-0.3-0.6c0.1-0.3,0.4-0.4,0.6-0.3l4.5,1.6l0.1-0.4c0-0.1,0.1-0.3,0.3-0.3s0.3,0,0.4,0.1l5.1,4.5
				c1.2-1,2.2-1.9,3.4-2.8l0.3-0.1c0.3-0.1,0.6-0.1,0.7,0.1c0.1,0.3,0.1,0.6-0.1,0.7l-0.3,0.1C523.7,871.2,522.4,872.2,521,873.3
				C521.2,873.1,521.2,873.3,521,873.3z"/>
		</g>
		<g class="st0">
			<path class="st1" d="M532.3,862.7c-0.1,0-0.1,0-0.3-0.1c-0.3-0.1-0.3-0.4-0.1-0.7c0.9-1.3,1.3-2.7,1.8-4.3
				c0.4-2.1,1.8-3.4,3.9-4.2c0.3-0.1,0.6,0,0.6,0.3c0.1,0.3,0,0.6-0.3,0.6c-1.8,0.6-2.8,1.8-3.3,3.4c-0.4,1.6-1,3.1-1.9,4.6
				C532.6,862.7,532.5,862.7,532.3,862.7z"/>
		</g>
		<g class="st0">
			<path class="st1" d="M553.3,858.7c-0.3,0-0.4-0.1-0.4-0.4l-0.1-4.6c-1.2,0-2.2,0-3.3,0h-1.3c-0.3,0-0.4-0.3-0.4-0.4
				c0-0.1,0.1-0.4,0.4-0.4h1.3c1.2,0,2.4,0,3.7,0c0.3,0,0.4,0.1,0.4,0.4l0.3,5.2C553.9,858.6,553.6,858.7,553.3,858.7L553.3,858.7z"
				/>
		</g>
		<g class="st0">
			<path class="st1" d="M553.6,866.3c-0.1,0-0.1,0-0.3-0.1c-0.1-0.1-0.1-0.3-0.1-0.4l-0.3-5.2c0-0.3,0.1-0.6,0.4-0.6
				s0.6,0.1,0.6,0.4l0.1,4.5c0.6-0.1,1.2-0.3,1.8-0.4c0.9-0.3,1.8-0.4,2.5-0.7c0.3-0.1,0.6,0,0.6,0.3c0.1,0.3,0,0.6-0.3,0.6
				c-0.9,0.3-1.6,0.6-2.7,0.7c-0.7,0.1-1.5,0.4-2.4,0.7C553.7,866.3,553.7,866.3,553.6,866.3z"/>
		</g>
		<g class="st0">
			<path class="st1" d="M567.4,857.2c-0.1,0-0.3,0-0.4-0.1c-0.1-0.1-0.1-0.6,0-0.7c3-2.5,6.7-3.9,11.2-3.9c0.3,0,0.6,0.3,0.6,0.4
				c0,0.1-0.1,0.4-0.4,0.4c-4.3,0-7.7,1.2-10.6,3.6C567.7,857.2,567.6,857.2,567.4,857.2z"/>
		</g>
		<g class="st0">
			<path class="st1" d="M595.1,854.7L595.1,854.7l-5.2-0.4c-0.3,0-0.4-0.3-0.4-0.6s0.3-0.4,0.6-0.4l4.6,0.3v-8.3
				c0-0.1,0.1-0.4,0.3-0.4c0.1,0,0.4,0,0.6,0l0.6,0.4c1.2-1,2.2-2.2,3.4-3.3c0.1-0.1,0.6-0.1,0.7,0c0.1,0.1,0.1,0.6,0,0.7
				c-1.2,1.2-2.5,2.4-3.7,3.6c-0.1,0.1-0.4,0.1-0.6,0l-0.1-0.1v7.7c0,0.1,0,0.3-0.1,0.4C595.4,854.7,595.2,854.7,595.1,854.7z"/>
		</g>
		<g class="st0">
			<path class="st1" d="M607.3,835.8c-0.1,0-0.3,0-0.4-0.1s-0.1-0.6,0-0.7c3.1-3,5.4-5.2,7.4-7.3c0.1-0.1,0.6-0.1,0.7,0
				c0.1,0.1,0.1,0.6,0,0.7c-2.1,2.1-4.5,4.5-7.6,7.3C607.6,835.7,607.4,835.8,607.3,835.8z M621.8,820.8c-0.1,0-0.1,0-0.3-0.1
				c-0.3-0.1-0.3-0.4-0.1-0.7c1.3-2.2,2.1-5.1,2.1-8.3c0-0.4,0-1,0-1.5c0-0.3,0.1-0.6,0.4-0.6c0.3,0,0.6,0.1,0.6,0.4
				c0,0.6,0,1,0,1.6c0,3.4-0.7,6.4-2.2,8.8C622.1,820.7,622,820.8,621.8,820.8z M620.9,800.7c-0.1,0-0.3-0.1-0.4-0.3
				c-0.1-0.1-0.3-0.4-0.4-0.6c-0.3-0.4-0.6-0.7-0.9-1.2c-0.4-0.4-0.7-0.9-1-1.3c-1.5-2.5-2.5-4.3-3-5.8c-0.1-0.3,0-0.6,0.3-0.6
				c0.3-0.1,0.6,0,0.6,0.3c0.4,1.3,1.5,3.1,3,5.5c0.3,0.4,0.6,0.9,1,1.2c0.3,0.4,0.7,0.9,1,1.3c0.1,0.3,0.3,0.4,0.4,0.7
				c0.1,0.3,0,0.6-0.1,0.7C621.1,800.7,621.1,800.7,620.9,800.7z M619.3,782.7c-0.1,0-0.3,0-0.3-0.1c-0.1-0.1-0.3-0.4,0-0.7l0.6-0.7
				c1.8-2.2,3.4-4.9,4.9-7.9c0.1-0.3,0.4-0.4,0.7-0.3c0.3,0.1,0.4,0.4,0.3,0.7c-1.5,3.1-3.1,5.9-5.1,8.2l-0.6,0.7
				C619.6,782.6,619.4,782.7,619.3,782.7z"/>
		</g>
		<g class="st0">
			<path class="st1" d="M628.2,763.9L628.2,763.9c-0.4-0.1-0.6-0.4-0.4-0.6l0.4-1.3c0.3-1.2,0.7-2.5,1-3.6c0-0.3,0.3-0.4,0.6-0.3
				l5.1,0.6c0.3,0,0.4,0.3,0.4,0.6c0,0.3-0.3,0.4-0.6,0.4l-4.8-0.4c-0.3,1-0.6,2.1-0.9,3.1l-0.4,1.3
				C628.7,763.7,628.5,763.9,628.2,763.9z"/>
		</g>
		<g class="st0">
			<path class="st1" d="M649.8,761.2C649.6,761.2,649.6,761.2,649.8,761.2l-5.2-0.6c-0.3,0-0.4-0.3-0.4-0.6c0-0.3,0.3-0.4,0.6-0.4
				l4.9,0.6c1.2-1.3,2.2-2.5,3.4-3.6c0.1-0.1,0.6-0.1,0.7,0s0.1,0.6,0,0.7c-1.2,1-2.4,2.4-3.6,3.7
				C649.9,761,649.9,761.2,649.8,761.2z"/>
		</g>
		<g class="st0">
			<path class="st1" d="M724,754.9c-0.3,0-0.4-0.1-0.4-0.4c0-0.3,0.1-0.6,0.4-0.6c1.6-0.3,3.4-1,5.2-2.5c1.3-1,2.8-1.8,4.3-2.4
				c0.3-0.1,0.6,0,0.7,0.3c0.1,0.3,0,0.6-0.3,0.7c-1.5,0.6-2.8,1.3-4,2.4C727.8,753.6,725.9,754.5,724,754.9
				C724.1,754.9,724.1,754.9,724,754.9z M692.5,754c-2.8,0-5.5-0.6-8.2-1.9c-0.3-0.1-0.6-0.3-0.9-0.4l-0.3-0.1
				c-0.3-0.1-0.3-0.4-0.3-0.7c0.1-0.3,0.4-0.3,0.7-0.3l0.3,0.1c0.3,0.1,0.6,0.3,0.9,0.4c2.8,1.3,5.9,1.9,8.9,1.8
				c0.3,0,0.6,0.1,0.6,0.4c0,0.3-0.1,0.6-0.4,0.6C693.3,753.9,692.9,754,692.5,754z M662.3,751.4c-0.1,0-0.4-0.1-0.4-0.3
				c-0.1-0.3,0-0.6,0.3-0.7c3.3-1.5,6.8-2.2,10.4-2.2h0.3c0.3,0,0.4,0.3,0.4,0.4c0,0.1-0.3,0.6-0.4,0.4h-0.3
				c-3.4,0-6.8,0.7-10.1,2.1C662.3,751.2,662.3,751.4,662.3,751.4z M714.2,751.2c-0.1,0-0.1,0-0.3-0.1c-3.3-2.2-6.1-2.4-9.7-0.4
				c-0.3,0.1-0.6,0-0.7-0.3c-0.1-0.3,0-0.6,0.3-0.7c4-1.9,7.1-1.8,10.7,0.6c0.3,0.1,0.3,0.4,0.1,0.7
				C714.5,751.1,714.3,751.2,714.2,751.2z"/>
		</g>
		<g class="st0">
			<path class="st1" d="M746.9,749c-0.1,0-0.4,0-0.6,0c-0.6-0.1-1.3-0.3-1.9-0.4c-0.3,0-0.4-0.3-0.4-0.6c0-0.3,0.3-0.4,0.6-0.4
				c0.7,0.1,1.3,0.3,2.1,0.4c0.4,0.1,1.2,0,1.8-0.3c0.3-0.1,0.7-0.1,1-0.3c0.3,0,0.6,0.1,0.6,0.4c0,0.3-0.1,0.6-0.4,0.6
				c-0.3,0-0.6,0.1-0.9,0.1C747.9,748.8,747.5,749,746.9,749z"/>
		</g>
	</g>
	<g>
		<path class="st3" d="M680.3,422.2c-0.1-1.9-1-3.3-2.4-4.5"/>
		<path class="st3" d="M666,411.2c-1-1.2-1.9-2.7-2.5-4.5c-1.5-0.3-3.3-0.7-5.1-1"/>
		<path class="st10" d="M652.6,404.5c-3-0.4-6.1-0.7-8.8-0.4"/>
		<path class="st3" d="M640.9,404.8c-1.8,0.4-3.3,1.3-4.5,2.5"/>
	</g>
</g>
<g id="Calque_1">
	<path class="st11" d="M671.6,204.3c0.6-0.3,0.3-2.5,0.4-4c0.1-8.8-2.1-16.5-6.2-24.5c-4.8-9.2-9.2-19.3,0.6-29.4
		c3.1-3.3,3.9-10.3-3.4-10.6c-6.2-0.3-10.3-3.3-14.4-7.1c-7,16.7-9.1,17-20.1,3.1c-1.8-2.2-3.4-1.8-5.4-0.7c-2.2,1-4.5,2.5-3.7,5.5
		c0.7,2.5,2.4,4.9,3.4,7.4c0.9,2.2,4.6,4.3,1.5,7c-2.2,1.8-5.2,0.7-7.9-0.3c-8.5-3.3-7.3-11.4-9.7-18c-0.9-2.7,1.6-8.2-4-7.7
		c-5.1,0.3-9.2,2.7-8.9,9.1c0.1,2.4,0.4,5.9-1.9,6.4c-8.5,1.8-11.7,10.4-19.2,13.4c-6.2,2.4-8.6,7.3-7.4,13.1
		c1.9,9.1-3.1,8.9-8.5,6.5c-13.5-6.4-23-0.9-31.1,9.7c-3,3.9-6.7,5.4-9.1,1c-5.1-9.2-10.4-16.2-22.5-12.6c-1,0.3-3-2.5-4.5-3.9
		c-10.1-9.4-26.3-7.4-35.2-19.2c-0.4-0.6-2.1-0.6-3-0.4c-15.6,3.7-25.7-15.6-41.8-10.3c-1.2,0.4-3.6-1.9-5.1-3.1
		c-13.4-10.9-27.1-10.1-40.7-1c-5.7,3.9-10,3.9-14-1.6c-9.7-12.9-25.1-4.5-36.7-10.1c-5.8,7.3-14,2.8-21,4.5
		c-7.9,1.9-14.3-3.6-21.4-4.9c-4.3-0.7-2.1-7.3-3-11.2c-1.5-6.1-5.2-8.5-11.4-7c-11.6,3-18.1,11.7-23.9,21.3c-1,1.8-1.6,3.9,0.1,5.7
		c1.3,1.3,3.1,1,4.9,0.6c2.4-0.4,4.9-4.5,7.1-1c2.4,3.6-0.9,6.2-3.3,8.8c-9.8,10.4-11.6,23.6-12.3,37.2c-0.1,2.2,0.1,5.8,1.6,6.7
		c7.1,4.6,6.8,12.2,8.5,19c0.6,2.8,1,5.4,4.2,6.5c9.4,3.6,9.5,10.6,6.7,18.6c-2.1,5.8-3.7,11.7-5.9,17.5c-4.8,11.7-7.7,23,3.3,33.2
		c1.2,1,1.8,3,1.9,4.6c2.8,17.2,5.5,34.5,8.3,51.7c0.6,4-1.5,6.7-4.5,8.5c-3.3,1.9-4.9-1.2-6.8-3c-2.2-2.1-4.3-4.5-6.5-6.5
		c-1.8-1.6-3.7-3.6-6.2-1.5c-2.4,2.1-1,4.3,0,6.5c0.7,1.5,1.3,3.3,2.5,4.5c7.4,7.1,3.3,9.4-4.3,10.1l0,0c-7.4-0.3-9.8,1.8-11,8.8
		c-2.7,16.5-4.5,33.3-17.2,46.1c-1.8,1.8-2.7,4.8-3.9,7.1c-5.7-0.1-9.8,4.8-15.6,4.5c-7.4-0.4-13.4,2.1-19,7.4
		c-4.2,3.9-8.9,7.9-16.2,6.7c-6.4-1-10.9,5.9-7,10.7c6.1,7.1,7.9,12.8-0.1,19.5c-1,0.9-1.8,5.1,0.7,5.1c11.9,0.1,14.3,7.3,14.3,17.2
		c0,3.3,4.5,3.9,7.1,5.2c9.4,4.8,13.5,12,14.3,22.7c0.9,12.3,1.8,24.4,0.4,36.7c-0.7,7.7,1.5,14.7,5.8,21.1c3.4,5.1,3.6,10.4,0,15.2
		c-5.5,7.6-3.7,14.7-1.2,23c3,10.1,17.8,11.7,16.4,24.7c-0.1,1.8,3.4,1.3,5.9,0.1c8.3-3.7,12,1.2,13.5,8.5c0.7,3.3,0.1,6.8,0.1,10.3
		c0.1,4.9,2.5,7.1,7.7,7.6c14.9,1.2,14.7,1.3,11.9,16.8c-1,5.4-1.8,10.7-2.5,16.2c-0.3,2.2-0.4,4,1.8,6.2
		c5.9,6.1,10.4,13.4,15.9,19.8c10.7,12.2,15.2,13.2,24.8,0.9c7.6,1.2,9.5,5.2,5.9,12c-1.2,2.4-1.9,5.1-2.5,7.7
		c-1.2,5.7,1,8.8,6.5,5.8c7.9-4.3,10,1.5,12,6.2c3.4,7.9,0,14.6-4.9,20.8c-6.8,8.6-6.8,18.1-1,26.8c4.9,7.1,12.8,7.3,21.1,6.8
		c14.1-0.9,26.9-9.5,41.6-7c3,0.4,5.2-2.5,7.1-5.4c2.7-4,6.4-7.3,8.3-11.6c4.8-10.3,8.2-4,11.6,0.7c1.3,1.9,2.4,4.3,2.7,6.7
		c0.4,4.9,3.1,4.3,7,4.8c11.6,1,12-8.2,16.1-18.1c3.6,4.8,5.9,8.2,8.6,11.3c4.5,5.2,8.6,0.9,12.9-0.4c3.9-1.2,5.9-3.4,4-7.6
		c-2.1-4.5,1.5-5.8,3.7-8.3c3.3-3.7,9.2-3.9,11.2-8.6c2.5-6.4,7-8.2,13.7-8.2c8.5,0,10.9-5.2,9.4-14.3c-2.1-12.2-8.9-23.8-4.5-36.7
		c0.6-1.9-0.1-4-1.6-5.8c-3.6-4.3-4-8.2,0.4-12.5c2.7-2.7,3.3-6.7,3.4-10.6c0.3-5.9,2.2-11,6.5-15.6c7.7-8.2,8-18.4,4-27.8
		c-3.9-9.1,0.4-11.2,7-10.6c12.2,1.2,10.6-5.5,8.6-12.9c-0.7-2.7-1.9-5.1-3-7.7c-0.3,0-0.6,0-1-0.1c0.3,0,0.6,0.1,1,0.1
		c1.9-0.7,4-1.2,5.8-2.2c9.5-5.2,10.1-8.8,1.6-15.8c-3.6-2.8-0.9-5.2-1-8c-0.3-8.2,4.6-17.4-3.7-24.4c2.2-3.9,1.6-8.3,0.1-11.7
		c-4.9-11.6-4.3-22.9-2.1-34.9c1.6-8.5,3.6-18.7-1.3-25.7c-5.4-7.4-11.7-14.7-17.7-21.9c4.2-1.3,7.9,0,11.7,1.5
		c5.4,2.1,7-1.3,4.6-4.8c-6.2-9.1-2.7-14.4,5.4-19.2c1.2-0.7,1.6-2.8,2.4-4.2c0.6-0.1,1.3-0.4,1.9-0.6c8.5-2.8,13.1-17.4,26.5-7.7
		c1.8,1.3,6.4,1.9,9.1,5.2c4.6,5.4,10.6,12.5,18,6.1c8.5-7.3,16.5-6.1,25.9-3.7c9.7,2.4,19.6,6.4,29.3-0.9c2.7-2.1,7.9-2.7,9.7-0.3
		c4.2,5.7,7.9,3.1,13.1,2.2c14.7-2.4,22.5-10.1,27.8-22.6c4.6-10.6,5.8-18.1-4.5-25.1c-1.9-1.3-1.3-6.2-4.9-5.5
		c-3.4,0.7-3.3,4.8-4.2,7.7c-0.4,1.3-0.3,2.7-0.3,4.2c-0.1,2.4-0.1,5.2-3,5.9c-3,0.7-3.7-2.5-5.5-3.9c-3-2.2-5.2-8.8-7.7-7.1
		c-9.8,6.5-9.4-3.9-12.9-7.1c-3.4-3.1-3.9-6.8,0.1-10.6c3.6-3.3,6.4-6.4,11.2-1.6c3,3,5.4,1.9,7.1-1.8c4.3-8.8,0.3-23.8-8.3-29.4
		c-2.7-1.8-3.1-4-3.7-6.8c-2.1-10.9,3.9-18.7,12.8-20.2c14.3-2.4,12.5-12.6,14.1-21.7c0.7-4.3,1.6-8.8,2.1-13.2
		c0.6-5.4,2.2-8.5,8.3-9.8c8.6-1.9,9.4-5.7,4.3-13.1c-2.4-3.4-7.9-6.8-4.8-11.4C668.4,226.5,657.7,211.5,671.6,204.3z M422.9,491.4
		c0.1-0.3,0.1-0.7,0.3-1C423,490.7,423,491.2,422.9,491.4z M422.9,488.8c0.1,0.4,0.3,1,0.3,1.8C423.2,489.8,423,489.2,422.9,488.8z
		 M422.4,488c0.1,0.1,0.3,0.3,0.3,0.6C422.7,488.3,422.6,488.2,422.4,488z M416,504.8c0-0.9,0.3-1.8,0.4-2.7
		C416.3,503.2,416.2,504.1,416,504.8c-0.3,3.9,1.3,7.6,4.5,11.4c0.7-0.1,1.6-0.3,2.4-0.4c-0.7,0.1-1.6,0.3-2.4,0.4
		C417.4,512.4,415.7,508.7,416,504.8z M450.2,538.9c-0.9-1.2-0.7-3.3-0.4-5.7l0,0C449.5,535.6,449.5,537.7,450.2,538.9
		c0.1,0.3,0.4,0.6,0.7,0.7C450.7,539.5,450.4,539.2,450.2,538.9z M429.4,514.9c-1.6,0.1-3.3,0.4-5.1,0.7
		C426.1,515.4,427.8,515.1,429.4,514.9z M413.5,484.5L413.5,484.5c-0.9-9.5-1-11.6,4.3-10.7C412.5,472.9,412.6,474.9,413.5,484.5z
		 M418.1,473.9c0.7,0.1,1.6,0.3,2.7,0.6C419.8,474.2,418.9,474.1,418.1,473.9z M381.7,499.8c-2.2-2.8-4-6.1-6.2-8.9
		C377.7,493.7,379.3,496.9,381.7,499.8c7.6-4.8,14.1-11.3,22.6-14.1C395.8,488.3,389.1,495,381.7,499.8z M384.7,572
		c0-0.1,0-0.1,0-0.3C384.7,571.9,384.7,572,384.7,572z M367.9,577.1c4.9-1.6,10.3-0.1,15.5,0.9c0.7-1.8,1.2-3.6,1.3-5.1
		c-0.1,1.5-0.6,3.1-1.3,5.1C378.1,577.1,372.8,575.5,367.9,577.1z M413.8,584.7L413.8,584.7c5.5,0.1,11.3-0.6,14.4,4.2
		C425.1,584.2,419.3,584.8,413.8,584.7z M477.3,588.8c5.9,0.9,8.5,9.8,15.3,11.2C485.8,598.8,483.2,589.9,477.3,588.8z M500.8,425.7
		c0-1.3-0.4-2.8-1.5-4c-5.1-4.3-10.1-8.6-13.5-14.4c-0.7-1.2-1.3-2.4-1.9-3.7c0.6,1.3,1.2,2.5,1.9,3.7c3.4,5.8,8.5,10.1,13.5,14.4
		C500.5,423.1,500.8,424.4,500.8,425.7z"/>
	<g>
		<path class="st12" d="M223,340.7c7.4-0.9,11.6-3,4.3-10.1c-1.2-1.2-1.8-3-2.5-4.5c-1-2.2-2.4-4.5,0-6.5c2.5-2.1,4.5-0.3,6.2,1.5
			c2.2,2.1,4.3,4.5,6.5,6.5c1.9,1.8,3.6,4.9,6.8,3c3.1-1.8,5.2-4.5,4.5-8.5c-2.8-17.2-5.5-34.5-8.3-51.7c-0.3-1.6-0.9-3.6-1.9-4.6
			c-10.9-10.1-7.9-21.4-3.3-33.2c2.4-5.7,3.9-11.7,5.9-17.5c2.8-8,2.7-15-6.7-18.6c-3.1-1.2-3.4-3.7-4.2-6.5
			c-1.6-6.8-1.3-14.4-8.5-19c-1.3-0.9-1.6-4.5-1.6-6.7c0.7-13.5,2.5-26.8,12.3-37.2c2.4-2.5,5.7-5.2,3.3-8.8c-2.2-3.4-4.8,0.6-7.1,1
			c-1.8,0.3-3.4,0.7-4.9-0.6c-1.8-1.8-1.2-3.9-0.1-5.7c5.9-9.4,12.3-18.1,23.9-21.3c6.2-1.6,10,0.9,11.4,7c0.9,3.9-1.3,10.3,3,11.2
			c7.3,1.3,13.7,6.8,21.4,4.9c7-1.6,15.2,2.8,21-4.5c11.6,5.7,27.1-2.8,36.7,10.1c4,5.5,8.3,5.5,14,1.6c13.5-9.1,27.4-10,40.7,1
			c1.6,1.3,3.9,3.6,5.1,3.1c16.2-5.4,26.2,14,41.8,10.3c0.9-0.3,2.5-0.1,3,0.4c8.9,11.7,25.1,9.8,35.2,19.2c1.5,1.3,3.4,4.2,4.5,3.9
			c12-3.6,17.4,3.4,22.5,12.6c2.4,4.3,6.1,2.8,9.1-1c8-10.4,17.4-16.1,31.1-9.7c5.4,2.5,10.3,2.5,8.5-6.5
			c-1.2-5.8,1.2-10.7,7.4-13.1c7.4-2.8,10.7-11.6,19.2-13.4c2.4-0.4,2.1-4.2,1.9-6.4c-0.3-6.4,3.9-8.8,8.9-9.1
			c5.7-0.3,3.1,5.1,4,7.7c2.4,6.5,1,14.9,9.7,18c2.7,1,5.7,2.1,7.9,0.3c3.3-2.7-0.6-4.8-1.5-7c-1-2.5-2.7-4.9-3.4-7.4
			c-0.7-2.8,1.5-4.3,3.7-5.5c1.9-0.9,3.4-1.5,5.4,0.7c11,13.8,13.1,13.5,20.1-3.1c4.2,4,8.3,6.8,14.4,7.1c7.3,0.3,6.7,7.3,3.4,10.6
			c-9.8,10-5.4,20.1-0.6,29.4c4.2,7.9,6.4,15.8,6.2,24.5c0,1.3,0.3,3.6-0.4,4c-14,7.3-3.4,22.2-10.1,32c-3.1,4.6,2.4,8,4.8,11.4
			c5.1,7.4,4.3,11.2-4.3,13.1c-6.1,1.3-7.7,4.5-8.3,9.8c-0.4,4.5-1.3,8.8-2.1,13.2c-1.6,9.1,0.1,19.3-14.1,21.7
			c-8.9,1.5-14.9,9.4-12.8,20.2c0.6,2.8,1,5.1,3.7,6.8c8.6,5.5,12.6,20.5,8.3,29.4c-1.8,3.6-4.3,4.8-7.1,1.8
			c-4.6-4.8-7.6-1.6-11.2,1.6c-4,3.7-3.7,7.3-0.1,10.6c3.6,3.3,3.1,13.7,12.9,7.1c2.4-1.6,4.8,4.9,7.7,7.1c1.8,1.3,2.5,4.6,5.5,3.9
			c2.8-0.7,2.8-3.6,3-5.9c0.1-1.3,0-2.8,0.3-4.2c0.9-2.8,0.7-7,4.2-7.7c3.6-0.7,3,4.2,4.9,5.5c10.3,7,9.1,14.6,4.5,25.1
			c-5.4,12.5-13.2,20.2-27.8,22.6c-5.2,0.9-8.9,3.3-13.1-2.2c-1.8-2.4-7-1.6-9.7,0.3c-9.7,7.3-19.6,3.1-29.3,0.9
			c-9.4-2.2-17.4-3.6-25.9,3.7c-7.4,6.4-13.2-0.7-18-6.1c-2.8-3.3-7.3-3.9-9.1-5.2c-13.2-9.7-18,4.9-26.5,7.7
			c-0.6,0.1-1.3,0.4-1.9,0.6l0.6-0.6c0.7-2.4,0.7-4.6-1-6.5c-8-6.8-16.1-13.7-17.7-26.9c-6.5,11.6-11.7,12.8-20.4,6.4
			c-1.6-1.2-3.1-2.7-4.5-4.3c-4.5-5.2-9.7-7.7-16.2-4.3c-5.4,2.8-9.2,0.7-12.3-3.4c-2.4-3.3-5.1-6.5-6.5-10.3
			c-2.1-5.1-4.5-4.2-7.6-1.3c-4.6,4.2-8.9,8.5-13.8,12.2c-5.7,4.5-10.7,4.6-13.2-3.6c-0.9-2.8-1.6-5.4-5.7-6.2
			c-13.5-3-26.8-7.6-36.7-17.5c-5.4-5.4-8.9-4.2-14.7-0.1c-15.2,10.7-31.2,19.2-50.7,10.4c-1-0.4-3.1-0.4-3.9,0.3
			c-5.2,5.5-9.5,2.7-14-1.2c-1.9-1.6-4.3-1.9-6.7-1.8C230.2,360.2,225.6,356.7,223,340.7z"/>
		<path class="st13" d="M270,709c-9.8,12.5-14.3,11.4-24.8-0.9c-5.7-6.4-10.1-13.7-15.9-19.8c-2.2-2.2-1.9-4.2-1.8-6.2
			c0.7-5.4,1.5-10.9,2.5-16.2c2.8-15.5,3-15.6-11.9-16.8c-5.2-0.4-7.6-2.7-7.7-7.6c-0.1-3.4,0.4-7-0.1-10.3
			c-1.5-7.3-5.2-12.2-13.5-8.5c-2.5,1.2-6.1,1.6-5.9-0.1c1.5-12.9-13.2-14.4-16.4-24.7c-2.5-8.3-4.3-15.5,1.2-23
			c3.6-4.9,3.6-10.1,0-15.2c-4.3-6.4-6.7-13.4-5.8-21.1c1.3-12.3,0.4-24.4-0.4-36.7c-0.7-10.7-4.9-18-14.3-22.7
			c-2.7-1.3-7.1-1.9-7.1-5.2c0-10-2.4-17.1-14.3-17.2c-2.5,0-1.8-4.3-0.7-5.1c8-6.7,6.2-12.3,0.1-19.5c-4-4.6,0.6-11.7,7-10.7
			c7.3,1.2,12.2-2.7,16.2-6.7c5.7-5.4,11.6-7.9,19-7.4c5.8,0.3,10-4.6,15.6-4.5c1.5,3,3.9,2.8,6.8,2.7c12.6-0.9,14.3,0.4,16.4,13.2
			c0.9,5.2,3,7.4,8.3,5.2c2.5-1,5.2-2.8,7.7-2.5c8,0.7,13.2-10.4,20.7-5.9c6.4,3.9,8.3,12.2,11.6,18.9c2.4,4.6,5.9,6.8,9.4,0.3
			c3.1-5.9,7.4-6.1,13.7-4.3c7.3,2.1,12.2,7.1,18.3,10.7c11.9,6.8,22.2,19.3,38.7,11.3c3.6-1.8,8,0.3,12.2,0.7
			c8.2,1,10.3,5.4,6.7,11.9c-2.2,4.2-2.1,7,1.5,9.8c4.6,3.7,7,9.2,10.7,13.8c-6.1,5.9-11.9,11.9-17,18.9
			c-10.6,14.4-4.6,37.3,12,44.3c7.6,3.1,9.7,7.7,6.5,15.2c-7.7-1.3-15.5-4-21.7,3.7c-3.1,3.7-6.1,0.1-9.2-0.9
			c-10.4-3.9-12.3-3.1-10.3,8.2c1.9,10.3-3.3,14.3-10.1,18.4c-1.2,0.7-2.2,1.5-3.4,2.2c-13.7,9.2-13.4,9.2-10,25.1
			c2.8,12.8-3.3,23.6-9.5,34.1c-1.3,2.1-4.6,3.1-7.4,1.5c-3-1.8-6.5-4.9-9.1-2.1c-2.8,3.1-0.3,7.4,1.3,11.3
			c5.7,13.1,2.7,23.3-9.4,30.8C272.4,701.5,270.8,704.8,270,709z"/>
		<path class="st14" d="M270,709c0.7-4.2,2.2-7.4,6.2-10c11.9-7.4,15-17.7,9.4-30.8c-1.6-3.9-4.2-8.2-1.3-11.3
			c2.5-3,6.2,0.1,9.1,2.1c2.8,1.8,6.1,0.7,7.4-1.5c6.2-10.4,12.3-21.1,9.5-34.1c-3.4-16.1-3.7-15.9,10-25.1c1.2-0.7,2.2-1.6,3.4-2.2
			c6.8-4.3,12.2-8.2,10.1-18.4c-2.2-11.3-0.1-12,10.3-8.2c3,1,6.1,4.6,9.2,0.9c6.2-7.7,14.1-5.1,21.7-3.7
			c6.5,4.6,16.1,5.1,18.9,14.9c1,3.7,4.2,2.4,6.5,0.4c2.8-2.2,3.9-5.5,5.1-8.6c6.7,0.1,14-0.9,16.2,8.3c0.4,2.2,2.7,2.5,4,1.2
			c6.5-6.1,14.6-0.7,21.1-0.9c8-0.1,14-4.2,20.8-4.5c7.4-0.3,9.7,11.3,18.1,11.3c1,2.5,2.2,5.1,3,7.7c1.9,7.4,3.6,14.1-8.6,12.9
			c-6.7-0.7-10.9,1.5-7,10.6c4,9.4,3.7,19.6-4,27.8c-4.3,4.6-6.2,9.7-6.5,15.6c-0.1,3.9-0.9,7.9-3.4,10.6c-4.3,4.5-4,8.3-0.4,12.5
			c1.5,1.8,2.2,3.9,1.6,5.8c-4.5,13.1,2.4,24.7,4.5,36.7c1.5,9.1-0.7,14.4-9.4,14.3c-6.7,0-11.2,1.6-13.7,8.2
			c-1.9,4.8-7.9,5.1-11.2,8.6c-2.2,2.5-5.8,3.9-3.7,8.3c1.9,4.2-0.1,6.4-4,7.6c-4.3,1.3-8.5,5.7-12.9,0.4c-2.7-3.1-5.1-6.5-8.6-11.3
			c-4,10-4.5,19.2-16.1,18.1c-3.9-0.3-6.5,0.1-7-4.8c-0.1-2.2-1.3-4.8-2.7-6.7c-3.4-4.8-6.8-10.9-11.6-0.7
			c-1.9,4.2-5.8,7.6-8.3,11.6c-1.8,2.7-4.2,5.8-7.1,5.4c-14.7-2.5-27.5,6.1-41.6,7c-8.3,0.4-16.2,0.3-21.1-6.8
			c-5.9-8.6-5.8-18.1,1-26.8c4.9-6.2,8.3-12.9,4.9-20.8c-2.1-4.8-4.3-10.6-12-6.2c-5.4,3-7.7-0.1-6.5-5.8c0.6-2.7,1.3-5.4,2.5-7.7
			C279.5,714.2,277.8,710.2,270,709z"/>
		<path class="st15" d="M373.4,488.3c-3.6-4.5-5.9-10-10.7-13.8c-3.4-2.8-3.7-5.5-1.5-9.8c3.6-6.5,1.6-11-6.7-11.9
			c-4.2-0.4-8.6-2.4-12.2-0.7c-16.5,8-26.8-4.3-38.7-11.3c-6.1-3.6-11-8.6-18.3-10.7c-6.2-1.8-10.6-1.6-13.7,4.3
			c-3.4,6.5-7,4.3-9.4-0.3c-3.4-6.7-5.2-15-11.6-18.9c-7.6-4.5-12.8,6.7-20.7,5.9c-2.4-0.3-5.2,1.6-7.7,2.5c-5.4,2.2-7.4,0-8.3-5.2
			c-2.1-12.8-3.7-14.1-16.4-13.2c-3,0.1-5.4,0.4-6.8-2.7c1.3-2.4,2.1-5.2,3.9-7.1c12.6-12.8,14.6-29.6,17.2-46.1c1-7,3.4-9.1,11-8.8
			c2.5,16.1,7,19.5,23.3,18c2.5-0.3,4.9,0.1,6.7,1.8c4.5,3.7,8.8,6.7,14,1.2c0.7-0.7,2.8-0.7,3.9-0.3c19.5,8.9,35.5,0.3,50.7-10.4
			c5.7-4,9.2-5.2,14.7,0.1c10.1,10.1,23.2,14.6,36.7,17.5c4,0.9,4.8,3.3,5.7,6.2c2.7,8.2,7.6,7.9,13.2,3.6
			c4.9-3.7,9.2-8.2,13.8-12.2c3.1-2.8,5.5-3.7,7.6,1.3c1.5,3.7,4.2,7,6.5,10.3c3.1,4.2,6.8,6.4,12.3,3.4c6.5-3.4,11.7-1,16.2,4.3
			c1.3,1.6,2.8,3.1,4.5,4.3c8.6,6.2,13.8,5.2,20.4-6.4c1.6,13.2,9.7,20.1,17.7,26.9c0,2.2-0.6,4.6,1,6.5l-0.6,0.6
			c-0.7,1.5-1.2,3.6-2.4,4.2c-8,4.8-11.6,10.1-5.4,19.2c2.4,3.4,0.7,7-4.6,4.8c-3.9-1.5-7.6-2.8-11.7-1.5c-8.3,3.3-15,8.5-18.9,17
			c-1.8,3.9-2.8,6.2-7.9,2.1c-6.2-5.2-14.3-7.4-22-1.3c-1.2,1-2.1,2.2-4.3,1.6c-10.1-2.5-10.3-2.4-9.1,9.5
			C391.8,472.4,383.5,482.1,373.4,488.3z"/>
		<path class="st16" d="M405.2,473.2c-1-11.9-1-12,9.1-9.5c2.2,0.6,3.1-0.7,4.3-1.6c7.7-6.1,15.8-3.9,22,1.3
			c5.1,4.3,6.1,1.9,7.9-2.1c3.9-8.5,10.6-13.7,18.9-17c6.1,7.1,12.3,14.4,17.7,21.9c5.1,7,3,17.2,1.3,25.7
			c-2.4,12-2.8,23.3,2.1,34.9c1.5,3.4,2.1,7.9-0.1,11.7c-10.9,0.1-18.3-6.4-25.4-13.4c-6.5-6.2-13.5-7.3-21.4-3.4
			c-0.7-1.5-1.9-3-2.1-4.5c-1-12.6-2.7-14.3-15.3-14c-4,0.1-7.9,1-11.7,1.6c-5.7-7-6.5-13.2,0-21.1
			C418.9,476,411.6,474.2,405.2,473.2z"/>
		<path class="st13" d="M441.6,521.9c7.9-3.9,15-2.8,21.4,3.4c7.1,6.8,14.6,13.5,25.4,13.4c8.3,7,3.3,16.2,3.7,24.4
			c0.1,2.7-2.5,5.1,1,8c8.5,7,8,10.4-1.6,15.8c-1.8,1-3.9,1.5-5.8,2.2c-8.6-0.1-10.7-11.7-18.1-11.3c-6.8,0.3-12.9,4.3-20.8,4.5
			c-6.5,0.1-14.6-5.1-21.1,0.9c-1.3,1.2-3.4,0.9-4-1.2c-2.1-9.2-9.4-8.2-16.2-8.3c-5.4-9.8-2.5-19.3,0.9-29
			c12.2,2.1,24.4,4.8,33.9-6.5c2.1-2.4,5.1-1.3,7.7-1.3c2.4-0.1,6.1,1.5,5.7-3.3c-0.3-3.6-2.2-5.9-6.1-4.9
			C441.3,530.1,440.9,526.7,441.6,521.9z"/>
		<path class="st17" d="M492.2,417.1c-1.6-1.9-1.2-4.3-1-6.5C492.9,412.3,492.9,414.7,492.2,417.1z"/>
		<path class="st18" d="M406.5,544.4c-3.4,9.5-6.2,19.2-0.9,29c-1.2,3.1-2.4,6.4-5.1,8.6c-2.4,1.9-5.5,3.1-6.5-0.4
			c-2.7-9.8-12.3-10.3-18.9-14.9c3.1-7.3,1-12-6.5-15.2c-16.8-6.8-22.6-29.9-12-44.3c5.1-7,10.9-12.9,17-18.9
			c10-6.2,18.4-15.9,31.8-15.3c6.2,1.2,13.7,3,7.1,10.9c-6.5,7.9-5.5,14.1,0,21.1c-5.8,5.1-12.6,7.6-20.2,8.5
			c-7.7,0.7-8.8,4.5-7.3,11.9C387.2,538,398.3,539.2,406.5,544.4z"/>
		<path class="st19" d="M406.5,544.4c-8.2-5.4-19.3-6.4-21.7-19c-1.3-7.4-0.4-11,7.3-11.9c7.6-0.7,14.4-3.4,20.2-8.5
			c3.9-0.6,7.9-1.6,11.7-1.6c12.8-0.3,14.4,1.3,15.3,14c0.1,1.5,1.3,3,2.1,4.5c-0.6,4.8-0.3,8.2,6.2,6.4c3.9-1,5.8,1.3,6.1,4.9
			c0.4,4.8-3.3,3.1-5.7,3.3c-2.7,0.1-5.7-1-7.7,1.3C430.8,549.1,418.6,546.5,406.5,544.4z"/>
	</g>
	<g>
		<path class="st20" d="M437,262.5c0,1.3-0.1,2.5-0.6,3.7c-0.4,1-1,2.1-1.8,2.8c-0.7,0.7-1.6,1.5-2.8,1.9c-1,0.4-2.2,0.6-3.6,0.6
			c-1.3,0-2.5-0.1-3.6-0.6c-1-0.4-1.9-1-2.8-1.9c-0.9-0.9-1.3-1.8-1.8-2.8c-0.4-1-0.6-2.4-0.6-3.7c0-1.3,0.1-2.5,0.6-3.7
			c0.4-1,1-2.1,1.8-2.8c0.7-0.7,1.6-1.5,2.8-1.9c1-0.4,2.2-0.6,3.6-0.6c1.3,0,2.5,0.1,3.6,0.6c1,0.4,1.9,1,2.8,1.9
			c0.7,0.7,1.3,1.8,1.8,2.8C436.7,259.9,437,261.1,437,262.5z M434.5,262.5c0-1-0.1-2.1-0.4-3c-0.3-0.9-0.7-1.6-1.2-2.2
			s-1.2-1-1.9-1.3c-0.7-0.3-1.6-0.4-2.5-0.4c-0.9,0-1.8,0.1-2.5,0.4c-0.7,0.3-1.5,0.7-1.9,1.3c-0.6,0.6-1,1.3-1.3,2.2
			c-0.3,0.9-0.4,1.8-0.4,3c0,1,0.1,2.1,0.4,3c0.3,0.9,0.7,1.6,1.3,2.2s1.2,1,1.9,1.3c0.7,0.3,1.6,0.4,2.5,0.4c0.9,0,1.8-0.1,2.5-0.4
			c0.7-0.3,1.5-0.7,1.9-1.3s0.9-1.3,1.2-2.2C434.3,264.5,434.5,263.7,434.5,262.5z"/>
		<path class="st20" d="M442.8,254.9c0,0.1,0,0.4-0.1,0.6s-0.1,0.3-0.3,0.4c-0.1,0.1-0.3,0.3-0.4,0.3c-0.1,0.1-0.4,0.1-0.6,0.1
			c-0.1,0-0.4,0-0.6-0.1c-0.1-0.1-0.3-0.1-0.4-0.3c-0.1-0.1-0.3-0.3-0.3-0.4c-0.1-0.1-0.1-0.4-0.1-0.6c0-0.1,0-0.4,0.1-0.6
			c0.1-0.1,0.1-0.3,0.3-0.4c0.1-0.1,0.3-0.3,0.4-0.3c0.1-0.1,0.4-0.1,0.6-0.1c0.1,0,0.4,0,0.6,0.1c0.1,0.1,0.3,0.1,0.4,0.3
			c0.1,0.1,0.3,0.3,0.3,0.4S442.8,254.7,442.8,254.9z M442.4,258.9v12.5h-2.2v-12.5H442.4z"/>
		<path class="st20" d="M453.4,260.8c-0.1,0.1-0.3,0.3-0.4,0.3c-0.1,0-0.3,0-0.4-0.1s-0.3-0.1-0.6-0.3c-0.3-0.1-0.4-0.1-0.7-0.3
			c-0.3-0.1-0.7-0.1-1-0.1c-0.3,0-0.7,0-1,0.1s-0.6,0.3-0.7,0.4c-0.1,0.1-0.3,0.3-0.4,0.6c-0.1,0.1-0.1,0.4-0.1,0.7
			c0,0.3,0.1,0.6,0.3,0.7c0.1,0.1,0.4,0.4,0.7,0.6c0.3,0.1,0.6,0.3,1,0.4c0.4,0.1,0.7,0.3,1.2,0.4c0.4,0.1,0.7,0.3,1.2,0.4
			c0.4,0.1,0.7,0.3,1,0.6c0.3,0.3,0.6,0.6,0.7,0.9c0.1,0.3,0.3,0.7,0.3,1.3s-0.1,1-0.3,1.6c-0.1,0.4-0.4,0.9-0.9,1.3
			c-0.4,0.3-0.9,0.6-1.5,0.9c-0.6,0.1-1.2,0.3-2.1,0.3s-1.6-0.1-2.4-0.4c-0.7-0.3-1.3-0.6-1.8-1l0.4-0.9c0-0.1,0.1-0.1,0.3-0.3
			c0.1,0,0.1-0.1,0.3-0.1c0.1,0,0.3,0,0.4,0.1c0.1,0.1,0.3,0.3,0.6,0.4c0.3,0.1,0.4,0.3,0.9,0.4s0.7,0.1,1.2,0.1
			c0.4,0,0.7,0,1.2-0.1c0.3-0.1,0.6-0.3,0.7-0.4c0.1-0.1,0.4-0.4,0.4-0.6c0.1-0.3,0.1-0.4,0.1-0.7c0-0.3-0.1-0.6-0.3-0.9
			c-0.1-0.3-0.4-0.4-0.7-0.6c-0.3-0.1-0.6-0.3-1-0.4c-0.4-0.1-0.7-0.3-1.2-0.4c-0.4-0.1-0.7-0.3-1.2-0.4c-0.4-0.1-0.7-0.4-1-0.6
			c-0.3-0.3-0.6-0.6-0.7-0.9c-0.1-0.4-0.3-0.9-0.3-1.3c0-0.4,0.1-0.9,0.3-1.3c0.1-0.4,0.4-0.9,0.9-1.2c0.4-0.3,0.9-0.6,1.3-0.7
			c0.6-0.1,1.2-0.3,1.9-0.3c0.9,0,1.6,0.1,2.2,0.4c0.6,0.3,1.2,0.6,1.6,1L453.4,260.8z"/>
		<path class="st20" d="M461.8,258.6c0.7,0,1.5,0.1,2.1,0.4c0.6,0.3,1.2,0.6,1.6,1c0.4,0.4,0.9,1,1,1.8c0.3,0.7,0.4,1.5,0.4,2.4
			c0,0.3,0,0.6-0.1,0.7c-0.1,0.1-0.1,0.1-0.4,0.1h-8.2c0,0.7,0.1,1.5,0.3,2.1c0.1,0.6,0.4,1,0.7,1.5s0.7,0.7,1.2,0.9
			c0.4,0.1,1,0.3,1.6,0.3s1,0,1.5-0.1c0.4-0.1,0.7-0.3,1-0.4c0.3-0.1,0.6-0.3,0.7-0.4c0.1-0.1,0.3-0.1,0.4-0.1c0.1,0,0.3,0,0.4,0.1
			l0.6,0.7c-0.3,0.3-0.6,0.6-1,0.9c-0.4,0.3-0.7,0.4-1.2,0.6c-0.4,0.1-0.9,0.3-1.3,0.3c-0.4,0.1-0.9,0.1-1.3,0.1
			c-0.9,0-1.6-0.1-2.4-0.4c-0.7-0.3-1.3-0.7-1.9-1.3s-0.9-1.3-1.2-2.1c-0.3-0.9-0.4-1.8-0.4-2.8c0-0.9,0.1-1.6,0.4-2.4
			c0.3-0.7,0.6-1.5,1.2-1.9c0.4-0.6,1.2-1,1.8-1.3C460.2,258.7,460.9,258.6,461.8,258.6z M462,260.2c-1,0-1.9,0.3-2.5,0.9
			c-0.6,0.6-1,1.5-1.2,2.5h6.8c0-0.4,0-1-0.1-1.3c-0.1-0.4-0.3-0.7-0.6-1c-0.3-0.3-0.6-0.6-1-0.7C462.9,260.4,462.4,260.2,462,260.2
			z"/>
	</g>
	<g>
		<path class="st20" d="M306,403.1h1.9c0.1,0,0.4,0,0.4,0.1c0.1,0.1,0.3,0.3,0.3,0.4l5.1,12.5c0.1,0.3,0.1,0.6,0.3,0.9
			c0.1,0.3,0.1,0.7,0.3,1c0.1-0.3,0.1-0.7,0.3-1c0.1-0.3,0.1-0.6,0.3-0.9l5.1-12.5c0-0.1,0.1-0.3,0.3-0.4c0.1-0.1,0.3-0.1,0.4-0.1
			h1.9l-7.3,17.7h-2.2L306,403.1z"/>
		<path class="st20" d="M332.3,420.8h-1c-0.1,0-0.4,0-0.4-0.1c-0.1,0-0.1-0.1-0.3-0.4l-0.3-1.2c-0.3,0.3-0.6,0.6-0.9,0.7
			c-0.3,0.3-0.6,0.4-1,0.6c-0.3,0.1-0.7,0.3-1,0.3c-0.4,0.1-0.9,0.1-1.3,0.1s-0.9,0-1.3-0.1c-0.4-0.1-0.7-0.3-1-0.6
			c-0.3-0.3-0.6-0.6-0.7-1c-0.1-0.4-0.3-0.9-0.3-1.5c0-0.4,0.1-1,0.4-1.5c0.3-0.4,0.7-0.9,1.3-1.2c0.6-0.3,1.3-0.6,2.4-0.9
			c1-0.3,2.2-0.3,3.6-0.3v-1c0-1-0.1-1.8-0.6-2.2s-1-0.7-1.8-0.7c-0.6,0-1,0-1.3,0.1c-0.3,0.1-0.7,0.3-0.9,0.4
			c-0.3,0.1-0.4,0.3-0.7,0.4c-0.1,0.1-0.4,0.1-0.6,0.1c-0.1,0-0.3,0-0.4-0.1c-0.1-0.1-0.1-0.1-0.3-0.3l-0.4-0.7
			c0.7-0.6,1.5-1.2,2.2-1.5c0.7-0.3,1.6-0.4,2.7-0.4c0.7,0,1.3,0.1,1.9,0.3c0.6,0.3,1,0.6,1.3,0.9c0.3,0.3,0.6,0.9,0.9,1.5
			c0.1,0.6,0.3,1.2,0.3,1.9v8.5H332.3z M326.7,419.5c0.4,0,0.7,0,1-0.1c0.3-0.1,0.6-0.1,0.9-0.3c0.3-0.1,0.6-0.3,0.7-0.6
			c0.1-0.3,0.4-0.4,0.7-0.7v-2.5c-1,0-1.9,0-2.5,0.1c-0.7,0.1-1.3,0.3-1.8,0.4s-0.7,0.4-1,0.7c-0.1,0.3-0.3,0.6-0.3,0.9
			c0,0.3,0,0.6,0.1,0.9c0.1,0.3,0.3,0.4,0.4,0.6c0.1,0.1,0.4,0.3,0.6,0.3S326.4,419.5,326.7,419.5z"/>
		<path class="st20" d="M338.1,402.7V421h-2.2v-18.3H338.1z"/>
		<path class="st20" d="M341.4,412.5h6.1v1.9h-6.1V412.5z"/>
		<path class="st20" d="M359.4,420.8c-0.3,0-0.4-0.1-0.6-0.4l-0.1-1.5c-0.6,0.6-1.2,1.2-1.8,1.6c-0.7,0.4-1.5,0.6-2.4,0.6
			c-0.7,0-1.3-0.1-1.9-0.4c-0.6-0.3-1-0.7-1.5-1.2c-0.4-0.6-0.7-1.2-0.9-1.9c-0.1-0.7-0.3-1.8-0.3-2.8c0-0.9,0.1-1.8,0.3-2.5
			s0.6-1.5,1-2.1s1-1,1.6-1.3c0.6-0.3,1.5-0.4,2.2-0.4c0.7,0,1.5,0.1,1.9,0.4s1,0.6,1.5,1v-7h2.2v18.3h-1.3V420.8z M355.2,419.2
			c0.7,0,1.3-0.1,1.9-0.4c0.6-0.3,1-0.7,1.5-1.3v-6.1c-0.4-0.6-0.9-0.9-1.3-1.2c-0.4-0.1-1-0.3-1.6-0.3c-1.2,0-2.1,0.4-2.7,1.2
			c-0.6,0.9-0.9,2.1-0.9,3.6c0,0.7,0,1.5,0.1,2.1c0.1,0.6,0.3,1,0.6,1.5c0.3,0.4,0.6,0.6,1,0.9C354.2,419.2,354.6,419.2,355.2,419.2
			z"/>
		<path class="st20" d="M365.9,402.2c0.3,0.4,0.4,0.7,0.4,1.2c0.1,0.4,0.1,0.7,0.1,1.2c0,0.7-0.1,1.5-0.6,2.1
			c-0.3,0.7-0.9,1.3-1.5,1.9l-0.7-0.4l-0.1-0.1v-0.1c0-0.1,0-0.1,0.1-0.3c0.1-0.1,0.3-0.3,0.4-0.4c0.1-0.1,0.3-0.4,0.3-0.6
			c0.1-0.1,0.1-0.4,0.3-0.6c0-0.1,0.1-0.4,0.1-0.7c0-0.3,0-0.6-0.1-0.7c-0.1-0.3-0.1-0.6-0.4-0.9c0-0.1-0.1-0.1-0.1-0.3
			c0-0.1,0.1-0.3,0.3-0.4L365.9,402.2z"/>
		<path class="st20" d="M386,412c0,1.3-0.1,2.5-0.6,3.7c-0.4,1-1,2.1-1.8,2.8c-0.7,0.7-1.6,1.5-2.8,1.9c-1,0.4-2.2,0.6-3.6,0.6
			s-2.5-0.1-3.6-0.6c-1-0.4-1.9-1-2.8-1.9s-1.3-1.8-1.8-2.8c-0.4-1-0.6-2.4-0.6-3.7s0.1-2.5,0.6-3.7c0.4-1,1-2.1,1.8-2.8
			c0.7-0.7,1.6-1.5,2.8-1.9c1-0.4,2.2-0.6,3.6-0.6s2.5,0.1,3.6,0.6c1,0.4,1.9,1,2.8,1.9c0.7,0.7,1.3,1.8,1.8,2.8
			C385.7,409.4,386,410.7,386,412z M383.5,412c0-1-0.1-2.1-0.4-3c-0.3-0.9-0.7-1.6-1.2-2.2c-0.4-0.6-1.2-1-1.9-1.3
			c-0.7-0.3-1.6-0.4-2.5-0.4s-1.8,0.1-2.5,0.4c-0.7,0.3-1.5,0.7-1.9,1.3c-0.6,0.6-1,1.3-1.3,2.2c-0.3,0.9-0.4,1.8-0.4,3
			c0,1,0.1,2.1,0.4,3c0.3,0.9,0.7,1.6,1.3,2.2s1.2,1,1.9,1.3c0.7,0.3,1.6,0.4,2.5,0.4s1.8-0.1,2.5-0.4c0.7-0.3,1.5-0.7,1.9-1.3
			c0.4-0.6,0.9-1.3,1.2-2.2C383.3,414.1,383.5,413.1,383.5,412z"/>
		<path class="st20" d="M391.8,404.3c0,0.1,0,0.4-0.1,0.6c-0.1,0.1-0.1,0.3-0.3,0.4c-0.1,0.1-0.3,0.3-0.4,0.3
			c-0.1,0.1-0.4,0.1-0.6,0.1c-0.1,0-0.4,0-0.6-0.1c-0.1-0.1-0.3-0.1-0.4-0.3c-0.1-0.1-0.3-0.3-0.3-0.4c-0.1-0.1-0.1-0.4-0.1-0.6
			c0-0.1,0-0.4,0.1-0.6c0.1-0.1,0.1-0.3,0.3-0.4c0.1-0.1,0.3-0.3,0.4-0.3c0.1-0.1,0.4-0.1,0.6-0.1c0.1,0,0.4,0,0.6,0.1
			c0.1,0.1,0.3,0.1,0.4,0.3c0.1,0.1,0.3,0.3,0.3,0.4C391.7,403.9,391.8,404.2,391.8,404.3z M391.4,408.3v12.5h-2.2v-12.5H391.4z"/>
		<path class="st20" d="M402.4,410.4c-0.1,0.1-0.3,0.3-0.4,0.3c-0.1,0-0.3,0-0.4-0.1c-0.1-0.1-0.3-0.1-0.6-0.3
			c-0.3-0.1-0.4-0.1-0.7-0.3c-0.3-0.1-0.7-0.1-1-0.1s-0.7,0-1,0.1c-0.3,0.1-0.6,0.3-0.7,0.4c-0.1,0.1-0.3,0.3-0.4,0.6
			c-0.1,0.1-0.1,0.4-0.1,0.7s0.1,0.6,0.3,0.7c0.1,0.1,0.4,0.4,0.7,0.6c0.3,0.1,0.6,0.3,1,0.4c0.4,0.1,0.7,0.3,1.2,0.4
			c0.4,0.1,0.7,0.3,1.2,0.4c0.4,0.1,0.7,0.3,1,0.6s0.6,0.6,0.7,0.9c0.1,0.3,0.3,0.7,0.3,1.3s-0.1,1-0.3,1.6
			c-0.1,0.4-0.4,0.9-0.9,1.3c-0.4,0.3-0.9,0.6-1.5,0.9c-0.6,0.1-1.2,0.3-2.1,0.3s-1.6-0.1-2.4-0.4c-0.7-0.3-1.3-0.6-1.8-1l0.4-0.9
			c0-0.1,0.1-0.1,0.3-0.3c0.1,0,0.1-0.1,0.3-0.1s0.3,0,0.4,0.1c0.1,0.1,0.3,0.3,0.6,0.4c0.3,0.1,0.4,0.3,0.9,0.4
			c0.4,0.1,0.7,0.1,1.2,0.1c0.4,0,0.7,0,1.2-0.1c0.3-0.1,0.6-0.3,0.7-0.4c0.1-0.1,0.4-0.4,0.4-0.6c0.1-0.3,0.1-0.4,0.1-0.7
			s-0.1-0.6-0.3-0.9c-0.1-0.3-0.4-0.4-0.7-0.6c-0.3-0.1-0.6-0.3-1-0.4c-0.4-0.1-0.7-0.3-1.2-0.4c-0.4-0.1-0.7-0.3-1.2-0.4
			c-0.4-0.1-0.7-0.4-1-0.6c-0.3-0.3-0.6-0.6-0.7-0.9c-0.1-0.4-0.3-0.9-0.3-1.3c0-0.4,0.1-0.9,0.3-1.3s0.4-0.9,0.9-1.2
			c0.4-0.3,0.9-0.6,1.3-0.7c0.6-0.1,1.2-0.3,1.9-0.3c0.9,0,1.6,0.1,2.2,0.4c0.6,0.3,1.2,0.6,1.6,1L402.4,410.4z"/>
		<path class="st20" d="M410.8,408c0.7,0,1.5,0.1,2.1,0.4c0.6,0.3,1.2,0.6,1.6,1c0.4,0.4,0.9,1,1,1.8c0.3,0.7,0.4,1.5,0.4,2.4
			c0,0.3,0,0.6-0.1,0.7c-0.1,0.1-0.1,0.1-0.4,0.1h-8.3c0,0.7,0.1,1.5,0.3,2.1c0.1,0.6,0.4,1,0.7,1.5c0.3,0.4,0.7,0.7,1.2,0.9
			c0.4,0.1,1,0.3,1.6,0.3s1,0,1.5-0.1c0.4-0.1,0.7-0.3,1-0.4c0.3-0.1,0.6-0.3,0.7-0.4c0.1-0.1,0.3-0.1,0.4-0.1c0.1,0,0.3,0,0.4,0.1
			l0.6,0.7c-0.3,0.3-0.6,0.6-1,0.9c-0.4,0.3-0.7,0.4-1.2,0.6c-0.4,0.1-0.9,0.3-1.3,0.3c-0.4,0.1-0.9,0.1-1.3,0.1
			c-0.9,0-1.6-0.1-2.4-0.4c-0.7-0.3-1.3-0.7-1.9-1.3s-0.9-1.3-1.2-2.1c-0.3-0.9-0.4-1.8-0.4-2.8c0-0.9,0.1-1.6,0.4-2.4
			c0.3-0.7,0.6-1.5,1.2-1.9c0.4-0.6,1.2-1,1.8-1.3C409.2,408.3,409.9,408,410.8,408z M411,409.7c-1,0-1.9,0.3-2.5,0.9
			c-0.6,0.6-1,1.5-1.2,2.5h6.8c0-0.4,0-1-0.1-1.3c-0.1-0.4-0.3-0.7-0.6-1c-0.3-0.3-0.6-0.6-1-0.7C411.9,409.8,411.4,409.7,411,409.7
			z"/>
	</g>
	<g>
		<path class="st13" d="M518.8,540.7h1.9c0.1,0,0.4,0,0.4,0.1c0.1,0.1,0.3,0.3,0.3,0.4l5.1,12.5c0.1,0.3,0.1,0.6,0.3,0.9
			c0.1,0.3,0.1,0.7,0.3,1c0.1-0.3,0.1-0.7,0.3-1c0.1-0.3,0.1-0.6,0.3-0.9l5.1-12.5c0-0.1,0.1-0.3,0.3-0.4s0.3-0.1,0.4-0.1h1.9
			l-7.3,17.7h-2.2L518.8,540.7z"/>
		<path class="st13" d="M545.1,558.4h-1c-0.1,0-0.4,0-0.4-0.1c-0.1,0-0.1-0.1-0.3-0.4l-0.3-1c-0.3,0.3-0.6,0.6-0.9,0.7
			c-0.3,0.3-0.6,0.4-1,0.6c-0.3,0.1-0.7,0.3-1,0.3c-0.4,0.1-0.9,0.1-1.3,0.1s-0.9,0-1.3-0.1s-0.7-0.3-1-0.6c-0.3-0.3-0.6-0.6-0.7-1
			c-0.1-0.4-0.3-0.9-0.3-1.5c0-0.4,0.1-1,0.4-1.5c0.3-0.4,0.7-0.9,1.3-1.2c0.6-0.3,1.3-0.6,2.4-0.9c1-0.3,2.2-0.3,3.6-0.3v-1
			c0-1-0.1-1.8-0.6-2.2c-0.4-0.4-1-0.7-1.8-0.7c-0.6,0-1,0-1.3,0.1c-0.3,0.1-0.7,0.3-0.9,0.4c-0.3,0.1-0.4,0.3-0.7,0.4
			c-0.1,0.1-0.4,0.1-0.6,0.1c-0.1,0-0.3,0-0.4-0.1c-0.1-0.1-0.1-0.1-0.3-0.3l-0.4-0.7c0.7-0.6,1.5-1.2,2.2-1.5
			c0.7-0.3,1.6-0.4,2.7-0.4c0.7,0,1.3,0.1,1.9,0.3c0.6,0.3,1,0.6,1.3,0.9c0.3,0.3,0.6,0.9,0.9,1.5c0.1,0.6,0.3,1.2,0.3,1.9
			L545.1,558.4L545.1,558.4z M539.3,557c0.4,0,0.7,0,1-0.1c0.3-0.1,0.6-0.1,0.9-0.3s0.6-0.3,0.7-0.6c0.1-0.3,0.4-0.4,0.7-0.7v-2.5
			c-1,0-1.9,0-2.5,0.1c-0.7,0.1-1.3,0.3-1.8,0.4c-0.4,0.1-0.7,0.4-1,0.7c-0.1,0.3-0.3,0.6-0.3,0.9s0,0.6,0.1,0.9
			c0.1,0.3,0.3,0.4,0.4,0.6c0.1,0.1,0.4,0.3,0.6,0.3C538.4,556.7,539.2,557,539.3,557z"/>
		<path class="st13" d="M550.9,540.2v18.3h-2.2v-18.3H550.9z"/>
		<path class="st13" d="M554.2,550h6.1v1.9h-6.1V550z"/>
		<path class="st13" d="M572.2,558.4c-0.3,0-0.4-0.1-0.6-0.4l-0.1-1.5c-0.6,0.6-1.2,1.2-1.8,1.6c-0.7,0.4-1.5,0.6-2.4,0.6
			c-0.7,0-1.3-0.1-1.9-0.4c-0.6-0.3-1-0.7-1.5-1.2c-0.4-0.6-0.7-1.2-0.9-1.9s-0.3-1.8-0.3-2.8c0-0.9,0.1-1.8,0.3-2.5s0.6-1.5,1-2.1
			c0.4-0.6,1-1,1.6-1.3c0.6-0.3,1.5-0.4,2.2-0.4s1.5,0.1,1.9,0.4c0.4,0.3,1,0.6,1.5,1v-7h2.2v18.3h-1.3V558.4z M567.9,556.7
			c0.7,0,1.3-0.1,1.9-0.4c0.6-0.3,1-0.7,1.5-1.3v-6.1c-0.4-0.6-0.9-0.9-1.3-1.2c-0.4-0.1-1-0.3-1.6-0.3c-1.2,0-2.1,0.4-2.7,1.2
			c-0.6,0.9-0.9,2.1-0.9,3.6c0,0.7,0,1.5,0.1,2.1c0.1,0.6,0.3,1,0.6,1.5c0.3,0.4,0.6,0.6,1,0.9C567,556.7,567.4,556.7,567.9,556.7z"
			/>
		<path class="st13" d="M582.1,545.6c0.7,0,1.5,0.1,2.1,0.4c0.6,0.3,1.2,0.6,1.6,1c0.4,0.4,0.9,1,1,1.8c0.3,0.7,0.4,1.5,0.4,2.4
			c0,0.3,0,0.6-0.1,0.7c-0.1,0.1-0.1,0.1-0.4,0.1h-8.3c0,0.7,0.1,1.5,0.3,2.1c0.1,0.6,0.4,1,0.7,1.5c0.3,0.4,0.7,0.7,1.2,0.9
			c0.4,0.1,1,0.3,1.6,0.3c0.6,0,1,0,1.5-0.1c0.4-0.1,0.7-0.3,1-0.4c0.3-0.1,0.6-0.3,0.7-0.4c0.1-0.1,0.3-0.1,0.4-0.1s0.3,0,0.4,0.1
			l0.6,0.7c-0.3,0.3-0.6,0.6-1,0.9c-0.4,0.3-0.7,0.4-1.2,0.6s-0.9,0.3-1.3,0.3c-0.4,0.1-0.9,0.1-1.3,0.1c-0.9,0-1.6-0.1-2.4-0.4
			c-0.7-0.3-1.3-0.7-1.9-1.3c-0.6-0.6-0.9-1.3-1.2-2.1c-0.3-0.9-0.4-1.8-0.4-2.8c0-0.9,0.1-1.6,0.4-2.4c0.3-0.7,0.6-1.5,1.2-1.9
			c0.4-0.6,1.2-1,1.8-1.3C580.3,545.9,581.2,545.6,582.1,545.6z M582.1,547.2c-1,0-1.9,0.3-2.5,0.9c-0.6,0.6-1,1.5-1.2,2.5h6.8
			c0-0.4,0-1-0.1-1.3c-0.1-0.4-0.3-0.7-0.6-1c-0.3-0.3-0.6-0.6-1-0.7C583.2,547.4,582.7,547.2,582.1,547.2z"/>
		<path class="st13" d="M589.6,550h6.1v1.9h-6.1V550z"/>
		<path class="st13" d="M608.1,552.6c0.1,0.1,0.1,0.4,0.3,0.6c0.1-0.3,0.1-0.4,0.3-0.6s0.1-0.4,0.3-0.6l5.9-10.9
			c0.1-0.1,0.1-0.3,0.3-0.3s0.3,0,0.4,0h1.8v17.7h-2.1v-13.1c0-0.1,0-0.3,0-0.6c0-0.1,0-0.4,0-0.6l-6.1,11.2
			c-0.1,0.3-0.4,0.6-0.9,0.6h-0.3c-0.3,0-0.6-0.1-0.9-0.6l-6.2-11.2c0,0.1,0,0.4,0,0.6s0,0.4,0,0.6v13.1h-2.1v-17.7h1.8
			c0.1,0,0.4,0,0.4,0s0.3,0.1,0.3,0.3l6.1,10.9C607.9,552.1,608,552.4,608.1,552.6z"/>
		<path class="st13" d="M630.7,558.4h-1c-0.1,0-0.4,0-0.4-0.1c-0.1,0-0.1-0.1-0.3-0.4l-0.3-1.2c-0.3,0.3-0.6,0.6-0.9,0.7
			c-0.3,0.3-0.6,0.4-1,0.6c-0.3,0.1-0.7,0.3-1,0.3c-0.4,0.1-0.9,0.1-1.3,0.1c-0.4,0-0.9,0-1.3-0.1c-0.4-0.1-0.7-0.3-1-0.6
			c-0.3-0.3-0.6-0.6-0.7-1s-0.3-0.9-0.3-1.5c0-0.4,0.1-1,0.4-1.5c0.3-0.4,0.7-0.9,1.3-1.2c0.6-0.3,1.3-0.6,2.4-0.9
			c1-0.3,2.2-0.3,3.6-0.3v-1c0-1-0.1-1.8-0.6-2.2s-1-0.7-1.8-0.7c-0.6,0-1,0-1.3,0.1c-0.3,0.1-0.7,0.3-0.9,0.4
			c-0.3,0.1-0.4,0.3-0.7,0.4c-0.1,0.1-0.4,0.1-0.6,0.1s-0.3,0-0.4-0.1c-0.1-0.1-0.1-0.1-0.3-0.3l-0.4-0.7c0.7-0.6,1.5-1.2,2.2-1.5
			c0.7-0.3,1.6-0.4,2.7-0.4c0.7,0,1.3,0.1,1.9,0.3c0.6,0.3,1,0.6,1.3,0.9c0.3,0.3,0.6,0.9,0.9,1.5c0.1,0.6,0.3,1.2,0.3,1.9
			L630.7,558.4L630.7,558.4z M625,557c0.4,0,0.7,0,1-0.1c0.3-0.1,0.6-0.1,0.9-0.3c0.3-0.1,0.6-0.3,0.7-0.6c0.1-0.3,0.4-0.4,0.7-0.7
			v-2.5c-1,0-1.9,0-2.5,0.1c-0.7,0.1-1.3,0.3-1.8,0.4c-0.4,0.1-0.7,0.4-1,0.7c-0.1,0.3-0.3,0.6-0.3,0.9s0,0.6,0.1,0.9
			c0.1,0.3,0.3,0.4,0.4,0.6c0.1,0.1,0.4,0.3,0.6,0.3C624.1,556.7,624.7,557,625,557z"/>
		<path class="st13" d="M634,558.4v-12.5h1.2c0.3,0,0.4,0,0.4,0.1s0.1,0.3,0.1,0.4l0.1,1.9c0.4-0.9,0.9-1.5,1.6-2.1
			c0.7-0.6,1.3-0.7,2.2-0.7c0.3,0,0.6,0,0.9,0.1c0.3,0.1,0.6,0.1,0.7,0.3l-0.3,1.6c0,0.1-0.1,0.3-0.4,0.3c-0.1,0-0.3,0-0.6-0.1
			c-0.3-0.1-0.6-0.1-1-0.1c-0.7,0-1.3,0.1-1.9,0.6c-0.6,0.4-0.9,1-1.3,1.9v8H634V558.4z"/>
		<path class="st13" d="M644,558.4v-12.5h1.3c0.3,0,0.4,0.1,0.6,0.4l0.1,1.3c0.6-0.6,1.2-1,1.8-1.5c0.6-0.4,1.5-0.6,2.4-0.6
			c0.7,0,1.3,0.1,1.8,0.3c0.4,0.1,0.9,0.6,1.3,0.9c0.4,0.3,0.6,0.9,0.7,1.5c0.1,0.6,0.3,1.2,0.3,1.9v8h-2.2v-8
			c0-0.9-0.1-1.6-0.6-2.2c-0.4-0.6-1-0.7-1.9-0.7c-0.6,0-1.2,0.1-1.8,0.4c-0.6,0.3-1,0.7-1.6,1.3v9.2H644L644,558.4L644,558.4z"/>
		<path class="st13" d="M662.7,545.6c0.7,0,1.5,0.1,2.1,0.4c0.6,0.3,1.2,0.6,1.6,1c0.4,0.4,0.9,1,1,1.8c0.3,0.7,0.4,1.5,0.4,2.4
			c0,0.3,0,0.6-0.1,0.7c-0.1,0.1-0.1,0.1-0.4,0.1H659c0,0.7,0.1,1.5,0.3,2.1c0.1,0.6,0.4,1,0.7,1.5c0.3,0.4,0.7,0.7,1.2,0.9
			c0.4,0.1,1,0.3,1.6,0.3c0.6,0,1,0,1.5-0.1c0.4-0.1,0.7-0.3,1-0.4c0.3-0.1,0.6-0.3,0.7-0.4c0.1-0.1,0.3-0.1,0.4-0.1s0.3,0,0.4,0.1
			l0.6,0.7c-0.3,0.3-0.6,0.6-1,0.9c-0.4,0.3-0.7,0.4-1.2,0.6s-0.9,0.3-1.3,0.3c-0.4,0.1-0.9,0.1-1.3,0.1c-0.9,0-1.6-0.1-2.4-0.4
			c-0.7-0.3-1.3-0.7-1.9-1.3c-0.6-0.6-0.9-1.3-1.2-2.1c-0.3-0.9-0.4-1.8-0.4-2.8c0-0.9,0.1-1.6,0.4-2.4c0.3-0.7,0.6-1.5,1.2-1.9
			c0.4-0.6,1.2-1,1.8-1.3C660.9,545.9,661.8,545.6,662.7,545.6z M662.7,547.2c-1,0-1.9,0.3-2.5,0.9c-0.6,0.6-1,1.5-1.2,2.5h6.8
			c0-0.4,0-1-0.1-1.3c-0.1-0.4-0.3-0.7-0.6-1c-0.3-0.3-0.6-0.6-1-0.7C663.8,547.4,663.3,547.2,662.7,547.2z"/>
	</g>
	<g>
		<path class="st20" d="M213.7,548.5h-2.4v-8.2h-9.5v8h-2.4v-17.7h2.4v7.9h9.5v-7.9h2.4V548.5z"/>
		<path class="st20" d="M226.9,548.5h-1c-0.1,0-0.4,0-0.4-0.1c-0.1,0-0.1-0.1-0.3-0.4l-0.3-1.2c-0.3,0.3-0.6,0.6-0.9,0.7
			c-0.3,0.3-0.6,0.4-1,0.6c-0.3,0.1-0.7,0.3-1,0.3c-0.4,0.1-0.9,0.1-1.3,0.1c-0.4,0-0.9,0-1.3-0.1c-0.4-0.1-0.7-0.3-1-0.6
			s-0.6-0.6-0.7-1c-0.1-0.4-0.3-0.9-0.3-1.5c0-0.4,0.1-1,0.4-1.5c0.3-0.4,0.7-0.9,1.3-1.2c0.6-0.3,1.3-0.6,2.4-0.9
			c1-0.3,2.2-0.3,3.6-0.3v-1c0-1-0.1-1.8-0.6-2.2c-0.4-0.4-1-0.7-1.8-0.7c-0.6,0-1,0-1.3,0.1c-0.3,0.1-0.7,0.3-0.9,0.4
			c-0.3,0.1-0.4,0.3-0.7,0.4c-0.1,0.1-0.4,0.1-0.6,0.1c-0.1,0-0.3,0-0.4-0.1s-0.1-0.1-0.3-0.3l-0.4-0.7c0.7-0.6,1.5-1.2,2.2-1.5
			c0.7-0.3,1.6-0.4,2.7-0.4c0.7,0,1.3,0.1,1.9,0.3c0.6,0.3,1,0.6,1.3,0.9c0.3,0.3,0.6,0.9,0.9,1.5c0.1,0.6,0.3,1.2,0.3,1.9v8.5
			H226.9z M221.3,547.2c0.4,0,0.7,0,1-0.1c0.3-0.1,0.6-0.1,0.9-0.3c0.3-0.1,0.6-0.3,0.7-0.6c0.1-0.3,0.4-0.4,0.7-0.7v-2.5
			c-1,0-1.9,0-2.5,0.1c-0.7,0.1-1.3,0.3-1.8,0.4c-0.4,0.1-0.7,0.4-1,0.7c-0.1,0.3-0.3,0.6-0.3,0.9c0,0.3,0,0.6,0.1,0.9
			c0.1,0.3,0.3,0.4,0.4,0.6c0.1,0.1,0.4,0.3,0.6,0.3C220.4,546.9,221,547.2,221.3,547.2z"/>
		<path class="st20" d="M232.1,535.9v8c0,0.9,0.1,1.6,0.6,2.2c0.4,0.4,1,0.7,1.9,0.7c0.6,0,1.2-0.1,1.8-0.4s1-0.7,1.6-1.3v-9.2h2.2
			v12.5h-1.3c-0.3,0-0.4-0.1-0.6-0.4l-0.1-1.3c-0.6,0.6-1.2,1-1.8,1.5c-0.7,0.3-1.5,0.6-2.4,0.6c-0.7,0-1.3-0.1-1.8-0.3
			c-0.6-0.3-0.9-0.6-1.3-0.9c-0.4-0.3-0.6-0.9-0.7-1.5c-0.1-0.6-0.3-1.2-0.3-1.9v-8.2H232.1z"/>
		<path class="st20" d="M247.9,548.7c-1,0-1.8-0.3-2.2-0.9c-0.4-0.6-0.7-1.3-0.7-2.4v-7.7h-1.5c-0.1,0-0.3,0-0.3-0.1
			s-0.1-0.1-0.1-0.3v-0.9l2.1-0.3l0.4-3.9c0-0.1,0-0.3,0.1-0.3c0.1,0,0.1-0.1,0.3-0.1h1v4.3h3.6v1.6H247v7.6c0,0.6,0.1,0.9,0.4,1.2
			s0.6,0.4,1,0.4c0.3,0,0.4,0,0.6-0.1c0.1-0.1,0.3-0.1,0.4-0.1c0.1,0,0.3-0.1,0.3-0.1s0.1-0.1,0.3-0.1c0.1,0,0.1,0,0.3,0.1l0.6,1
			c-0.4,0.3-0.9,0.6-1.3,0.9C248.9,548.5,248.3,548.7,247.9,548.7z"/>
		<path class="st20" d="M260.4,538c-0.1,0.1-0.3,0.3-0.4,0.3s-0.3,0-0.4-0.1c-0.1-0.1-0.3-0.1-0.6-0.3c-0.3-0.1-0.4-0.1-0.7-0.3
			c-0.3-0.1-0.7-0.1-1-0.1c-0.3,0-0.7,0-1,0.1c-0.3,0.1-0.6,0.3-0.7,0.4c-0.1,0.1-0.3,0.3-0.4,0.6c-0.1,0.1-0.1,0.4-0.1,0.7
			c0,0.3,0.1,0.6,0.3,0.7c0.1,0.1,0.4,0.4,0.7,0.6c0.3,0.1,0.6,0.3,1,0.4s0.7,0.3,1.2,0.4c0.4,0.1,0.7,0.3,1.2,0.4
			c0.4,0.1,0.7,0.3,1,0.6c0.3,0.3,0.6,0.6,0.7,0.9c0.1,0.3,0.3,0.7,0.3,1.3c0,0.6-0.1,1-0.3,1.6c-0.1,0.4-0.4,0.9-0.9,1.3
			c-0.4,0.3-0.9,0.6-1.5,0.9c-0.6,0.1-1.2,0.3-2.1,0.3s-1.6-0.1-2.4-0.4c-0.7-0.3-1.3-0.6-1.8-1l0.4-0.9c0-0.1,0.1-0.1,0.3-0.3
			c0.1,0,0.1-0.1,0.3-0.1c0.1,0,0.3,0,0.4,0.1c0.1,0.1,0.3,0.3,0.6,0.4s0.4,0.3,0.9,0.4c0.4,0.1,0.7,0.1,1.2,0.1s0.7,0,1.2-0.1
			c0.3-0.1,0.6-0.3,0.7-0.4c0.1-0.1,0.4-0.4,0.4-0.6c0.1-0.3,0.1-0.4,0.1-0.7c0-0.3-0.1-0.6-0.3-0.9c-0.1-0.3-0.4-0.4-0.7-0.6
			c-0.3-0.1-0.6-0.3-1-0.4c-0.4-0.1-0.7-0.3-1.2-0.4c-0.4-0.1-0.7-0.3-1.2-0.4c-0.4-0.1-0.7-0.4-1-0.6c-0.3-0.3-0.6-0.6-0.7-0.9
			c-0.1-0.4-0.3-0.9-0.3-1.3c0-0.4,0.1-0.9,0.3-1.3c0.1-0.4,0.4-0.9,0.9-1.2c0.4-0.3,0.9-0.6,1.3-0.7c0.6-0.1,1.2-0.3,1.9-0.3
			c0.9,0,1.6,0.1,2.2,0.4s1.2,0.6,1.6,1L260.4,538z"/>
		<path class="st20" d="M263.3,540.1h6.1v1.9h-6.1V540.1z"/>
		<path class="st20" d="M281.3,548.5c-0.3,0-0.4-0.1-0.6-0.4l-0.1-1.5c-0.6,0.6-1.2,1.2-1.8,1.6c-0.7,0.4-1.5,0.6-2.4,0.6
			c-0.7,0-1.3-0.1-1.9-0.4c-0.6-0.3-1-0.7-1.5-1.2c-0.4-0.6-0.7-1.2-0.9-1.9c-0.1-0.7-0.3-1.8-0.3-2.8c0-0.9,0.1-1.8,0.3-2.5
			s0.6-1.5,1-2.1c0.4-0.6,1-1,1.6-1.3s1.5-0.4,2.2-0.4s1.5,0.1,1.9,0.4s1,0.6,1.5,1v-7h2.2v18.3h-1.3V548.5z M277.2,546.9
			c0.7,0,1.3-0.1,1.9-0.4c0.6-0.3,1-0.7,1.5-1.3v-6.2c-0.4-0.6-0.9-0.9-1.3-1.2c-0.4-0.1-1-0.3-1.6-0.3c-1.2,0-2.1,0.4-2.7,1.2
			c-0.6,0.9-0.9,2.1-0.9,3.6c0,0.7,0,1.5,0.1,2.1c0.1,0.6,0.3,1,0.6,1.5c0.3,0.4,0.6,0.6,1,0.9C276.1,546.8,276.6,546.9,277.2,546.9
			z"/>
		<path class="st20" d="M291.3,535.8c0.7,0,1.5,0.1,2.1,0.4s1.2,0.6,1.6,1c0.4,0.4,0.9,1,1,1.8c0.3,0.7,0.4,1.5,0.4,2.4
			c0,0.3,0,0.6-0.1,0.7c-0.1,0.1-0.1,0.1-0.4,0.1h-8.3c0,0.7,0.1,1.5,0.3,2.1c0.1,0.6,0.4,1,0.7,1.5c0.3,0.4,0.7,0.7,1.2,0.9
			s1,0.3,1.6,0.3c0.6,0,1,0,1.5-0.1c0.4-0.1,0.7-0.3,1-0.4c0.3-0.1,0.6-0.3,0.7-0.4c0.1-0.1,0.3-0.1,0.4-0.1c0.1,0,0.3,0,0.4,0.1
			l0.6,0.7c-0.3,0.3-0.6,0.6-1,0.9c-0.4,0.3-0.7,0.4-1.2,0.6c-0.4,0.1-0.9,0.3-1.3,0.3c-0.4,0.1-0.9,0.1-1.3,0.1
			c-0.9,0-1.6-0.1-2.4-0.4c-0.7-0.3-1.3-0.7-1.9-1.3c-0.6-0.6-0.9-1.3-1.2-2.1c-0.3-0.9-0.4-1.8-0.4-2.8c0-0.9,0.1-1.6,0.4-2.4
			c0.3-0.7,0.6-1.5,1.2-1.9c0.4-0.6,1.2-1,1.8-1.3C289.7,535.9,290.4,535.8,291.3,535.8z M291.4,537.4c-1,0-1.9,0.3-2.5,0.9
			c-0.6,0.6-1,1.5-1.2,2.5h6.8c0-0.4,0-1-0.1-1.3c-0.1-0.4-0.3-0.7-0.6-1c-0.3-0.3-0.6-0.6-1-0.7
			C292.3,537.4,291.9,537.4,291.4,537.4z"/>
		<path class="st20" d="M298.7,540.1h6.1v1.9h-6.1V540.1z"/>
		<path class="st20" d="M317.3,533.5c0,0.1-0.1,0.1-0.3,0.3c-0.1,0-0.1,0.1-0.3,0.1c-0.1,0-0.3,0-0.4-0.1c-0.1-0.1-0.4-0.3-0.7-0.4
			c-0.3-0.1-0.6-0.3-1-0.4c-0.4-0.1-0.9-0.1-1.5-0.1s-1,0-1.5,0.1c-0.4,0.1-0.7,0.3-1,0.6c-0.3,0.3-0.4,0.6-0.6,0.9
			c-0.1,0.3-0.1,0.7-0.1,1c0,0.4,0.1,0.9,0.3,1.2c0.3,0.3,0.6,0.6,0.9,0.9c0.3,0.3,0.9,0.4,1.3,0.6c0.4,0.1,1,0.3,1.5,0.6
			c0.6,0.1,1,0.4,1.5,0.6c0.4,0.3,0.9,0.4,1.3,0.9c0.4,0.3,0.7,0.7,0.9,1.3c0.3,0.4,0.3,1.2,0.3,1.8c0,0.7-0.1,1.5-0.4,2.2
			c-0.3,0.7-0.6,1.3-1.2,1.8c-0.4,0.4-1.2,0.9-1.9,1.2c-0.7,0.3-1.6,0.4-2.5,0.4c-1.2,0-2.2-0.1-3.1-0.6c-0.9-0.4-1.8-1-2.4-1.6
			l0.7-1.2c0-0.1,0.1-0.1,0.3-0.3c0.1,0,0.1-0.1,0.3-0.1c0.1,0,0.3,0.1,0.6,0.3c0.1,0.1,0.4,0.4,0.9,0.6c0.3,0.1,0.7,0.4,1.2,0.6
			c0.4,0.1,1,0.3,1.8,0.3c0.6,0,1-0.1,1.5-0.3c0.4-0.1,0.9-0.4,1.2-0.6c0.3-0.1,0.6-0.6,0.7-1c0.1-0.4,0.3-0.9,0.3-1.3
			c0-0.6-0.1-1-0.3-1.3c-0.3-0.3-0.6-0.6-0.9-0.9c-0.4-0.3-0.9-0.4-1.3-0.6c-0.4-0.1-1-0.3-1.5-0.4c-0.6-0.1-1-0.3-1.5-0.6
			c-0.4-0.1-0.9-0.4-1.3-0.9c-0.4-0.3-0.7-0.7-0.9-1.3c-0.1-0.6-0.3-1.2-0.3-1.9c0-0.6,0.1-1.2,0.3-1.8c0.3-0.6,0.6-1,1-1.5
			c0.4-0.4,1-0.7,1.8-1c0.7-0.3,1.5-0.4,2.4-0.4c1,0,1.9,0.1,2.7,0.4c0.7,0.3,1.5,0.7,2.1,1.3L317.3,533.5z"/>
		<path class="st20" d="M326.1,535.8c0.7,0,1.5,0.1,2.1,0.4s1.2,0.6,1.6,1c0.4,0.4,0.9,1,1,1.8c0.3,0.7,0.4,1.5,0.4,2.4
			c0,0.3,0,0.6-0.1,0.7c-0.1,0.1-0.1,0.1-0.4,0.1h-8.3c0,0.7,0.1,1.5,0.3,2.1c0.1,0.6,0.4,1,0.7,1.5c0.3,0.4,0.7,0.7,1.2,0.9
			s1,0.3,1.6,0.3c0.6,0,1,0,1.5-0.1c0.4-0.1,0.7-0.3,1-0.4c0.3-0.1,0.6-0.3,0.7-0.4c0.1-0.1,0.3-0.1,0.4-0.1c0.1,0,0.3,0,0.4,0.1
			l0.6,0.7c-0.3,0.3-0.6,0.6-1,0.9c-0.4,0.3-0.7,0.4-1.2,0.6c-0.4,0.1-0.9,0.3-1.3,0.3c-0.4,0.1-0.9,0.1-1.3,0.1
			c-0.9,0-1.6-0.1-2.4-0.4c-0.7-0.3-1.3-0.7-1.9-1.3c-0.6-0.6-0.9-1.3-1.2-2.1c-0.3-0.9-0.4-1.8-0.4-2.8c0-0.9,0.1-1.6,0.4-2.4
			c0.3-0.7,0.6-1.5,1.2-1.9c0.4-0.6,1.2-1,1.8-1.3C324.3,535.9,325,535.8,326.1,535.8z M326.1,537.4c-1,0-1.9,0.3-2.5,0.9
			c-0.6,0.6-1,1.5-1.2,2.5h6.8c0-0.4,0-1-0.1-1.3c-0.1-0.4-0.3-0.7-0.6-1c-0.3-0.3-0.6-0.6-1-0.7C327,537.4,326.5,537.4,326.1,537.4
			z"/>
		<path class="st20" d="M336.9,532c0,0.1,0,0.4-0.1,0.6c-0.1,0.1-0.1,0.3-0.3,0.4s-0.3,0.3-0.4,0.3c-0.1,0.1-0.4,0.1-0.6,0.1
			c-0.1,0-0.4,0-0.6-0.1c-0.1-0.1-0.3-0.1-0.4-0.3s-0.3-0.3-0.3-0.4c-0.1-0.1-0.1-0.4-0.1-0.6c0-0.1,0-0.4,0.1-0.6
			c0.1-0.1,0.1-0.3,0.3-0.4c0.1-0.1,0.3-0.3,0.4-0.3c0.1-0.1,0.4-0.1,0.6-0.1c0.1,0,0.4,0,0.6,0.1c0.1,0.1,0.3,0.1,0.4,0.3
			c0.1,0.1,0.3,0.3,0.3,0.4C336.8,531.6,336.9,531.7,336.9,532z M336.5,535.9v12.5h-2.2v-12.5H336.5z"/>
		<path class="st20" d="M340.4,548.5v-12.6h1.3c0.3,0,0.4,0.1,0.6,0.4l0.1,1.3c0.6-0.6,1.2-1,1.8-1.5c0.6-0.4,1.5-0.6,2.4-0.6
			c0.7,0,1.3,0.1,1.8,0.3c0.4,0.1,0.9,0.6,1.3,0.9c0.4,0.3,0.6,0.9,0.7,1.5c0.1,0.6,0.3,1.2,0.3,1.9v8h-2.2v-8
			c0-0.9-0.1-1.6-0.6-2.2c-0.4-0.6-1-0.7-1.9-0.7c-0.6,0-1.2,0.1-1.8,0.4c-0.6,0.3-1,0.7-1.6,1.3v9.2h-2.2L340.4,548.5L340.4,548.5z
			"/>
		<path class="st20" d="M359.1,535.8c0.7,0,1.5,0.1,2.1,0.4s1.2,0.6,1.6,1c0.4,0.4,0.9,1,1,1.8c0.3,0.7,0.4,1.5,0.4,2.4
			c0,0.3,0,0.6-0.1,0.7c-0.1,0.1-0.1,0.1-0.4,0.1h-8.3c0,0.7,0.1,1.5,0.3,2.1c0.1,0.6,0.4,1,0.7,1.5c0.3,0.4,0.7,0.7,1.2,0.9
			s1,0.3,1.6,0.3c0.6,0,1,0,1.5-0.1s0.7-0.3,1-0.4s0.6-0.3,0.7-0.4c0.1-0.1,0.3-0.1,0.4-0.1c0.1,0,0.3,0,0.4,0.1l0.6,0.7
			c-0.3,0.3-0.6,0.6-1,0.9c-0.4,0.3-0.7,0.4-1.2,0.6c-0.4,0.1-0.9,0.3-1.3,0.3c-0.4,0.1-0.9,0.1-1.3,0.1c-0.9,0-1.6-0.1-2.4-0.4
			c-0.7-0.3-1.3-0.7-1.9-1.3c-0.6-0.6-0.9-1.3-1.2-2.1c-0.3-0.9-0.4-1.8-0.4-2.8c0-0.9,0.1-1.6,0.4-2.4c0.3-0.7,0.6-1.5,1.2-1.9
			c0.4-0.6,1.2-1,1.8-1.3C357.3,535.9,358.2,535.8,359.1,535.8z M359.1,537.4c-1,0-1.9,0.3-2.5,0.9c-0.6,0.6-1,1.5-1.2,2.5h6.8
			c0-0.4,0-1-0.1-1.3c-0.1-0.4-0.3-0.7-0.6-1c-0.3-0.3-0.6-0.6-1-0.7C360.1,537.4,359.7,537.4,359.1,537.4z"/>
	</g>
	<g>
		<path class="st16" d="M529.9,453.1c0,0.1-0.1,0.1-0.3,0.3c-0.1,0-0.1,0.1-0.3,0.1c-0.1,0-0.3,0-0.4-0.1s-0.4-0.3-0.7-0.4
			c-0.3-0.1-0.6-0.3-1-0.4s-0.9-0.1-1.5-0.1c-0.6,0-1,0-1.5,0.1c-0.4,0.1-0.7,0.3-1,0.6c-0.3,0.3-0.4,0.6-0.6,0.9
			c-0.1,0.3-0.1,0.7-0.1,1c0,0.4,0.1,0.9,0.3,1.2c0.3,0.3,0.6,0.6,0.9,0.9c0.3,0.3,0.9,0.4,1.3,0.6c0.4,0.1,1,0.3,1.5,0.6
			c0.6,0.1,1,0.4,1.5,0.6c0.4,0.3,0.9,0.4,1.3,0.9c0.4,0.3,0.7,0.7,0.9,1.3c0.3,0.4,0.3,1.2,0.3,1.8c0,0.7-0.1,1.5-0.4,2.2
			c-0.3,0.7-0.6,1.3-1.2,1.8c-0.4,0.4-1.2,0.9-1.9,1.2c-0.7,0.3-1.6,0.4-2.5,0.4c-1.2,0-2.2-0.1-3.1-0.6c-0.9-0.4-1.8-1-2.4-1.6
			l0.7-1.2c0-0.1,0.1-0.1,0.3-0.3c0.1,0,0.1-0.1,0.3-0.1c0.1,0,0.3,0.1,0.6,0.3c0.1,0.1,0.4,0.4,0.9,0.6c0.3,0.1,0.7,0.4,1.2,0.6
			c0.4,0.1,1,0.3,1.8,0.3c0.6,0,1-0.1,1.5-0.3c0.4-0.1,0.9-0.4,1.2-0.6c0.3-0.1,0.6-0.6,0.7-1c0.1-0.4,0.3-0.9,0.3-1.3
			c0-0.6-0.1-1-0.3-1.3c-0.3-0.3-0.6-0.6-0.9-0.9c-0.4-0.3-0.9-0.4-1.3-0.6c-0.4-0.1-1-0.3-1.5-0.4c-0.6-0.1-1-0.3-1.5-0.6
			c-0.4-0.1-0.9-0.4-1.3-0.9c-0.4-0.3-0.7-0.7-0.9-1.3c-0.1-0.6-0.3-1.2-0.3-1.9c0-0.6,0.1-1.2,0.3-1.8c0.3-0.6,0.6-1,1-1.5
			c0.4-0.4,1-0.7,1.8-1c0.7-0.3,1.5-0.4,2.4-0.4c1,0,1.9,0.1,2.7,0.4c0.7,0.3,1.5,0.7,2.1,1.3L529.9,453.1z"/>
		<path class="st16" d="M538.6,455.3c0.7,0,1.5,0.1,2.1,0.4c0.6,0.3,1.2,0.6,1.6,1c0.4,0.4,0.9,1,1,1.8c0.3,0.7,0.4,1.5,0.4,2.4
			c0,0.3,0,0.6-0.1,0.7c-0.1,0.1-0.1,0.1-0.4,0.1h-8.3c0,0.7,0.1,1.5,0.3,2.1c0.1,0.6,0.4,1,0.7,1.5c0.3,0.4,0.7,0.7,1.2,0.9
			c0.4,0.1,1,0.3,1.6,0.3c0.6,0,1,0,1.5-0.1c0.4-0.1,0.7-0.3,1-0.4c0.3-0.1,0.6-0.3,0.7-0.4c0.1-0.1,0.3-0.1,0.4-0.1s0.3,0,0.4,0.1
			l0.6,0.7c-0.3,0.3-0.6,0.6-1,0.9c-0.4,0.3-0.7,0.4-1.2,0.6c-0.4,0.1-0.9,0.3-1.3,0.3c-0.4,0.1-0.9,0.1-1.3,0.1
			c-0.9,0-1.6-0.1-2.4-0.4c-0.7-0.3-1.3-0.7-1.9-1.3c-0.6-0.6-0.9-1.3-1.2-2.1c-0.3-0.9-0.4-1.8-0.4-2.8c0-0.9,0.1-1.6,0.4-2.4
			c0.3-0.7,0.6-1.5,1.2-1.9c0.4-0.6,1.2-1,1.8-1.3C536.8,455.5,537.7,455.3,538.6,455.3z M538.6,457c-1,0-1.9,0.3-2.5,0.9
			s-1,1.5-1.2,2.5h6.8c0-0.4,0-1-0.1-1.3c-0.1-0.4-0.3-0.7-0.6-1c-0.3-0.3-0.6-0.6-1-0.7C539.6,457.1,539.2,457,538.6,457z"/>
		<path class="st16" d="M549.6,451.6c0,0.1,0,0.4-0.1,0.6c-0.1,0.1-0.1,0.3-0.3,0.4c-0.1,0.1-0.3,0.3-0.4,0.3
			c-0.1,0.1-0.4,0.1-0.6,0.1s-0.4,0-0.6-0.1c-0.1-0.1-0.3-0.1-0.4-0.3s-0.3-0.3-0.3-0.4c-0.1-0.1-0.1-0.4-0.1-0.6
			c0-0.1,0-0.4,0.1-0.6c0.1-0.1,0.1-0.3,0.3-0.4c0.1-0.1,0.3-0.3,0.4-0.3c0.1-0.1,0.4-0.1,0.6-0.1s0.4,0,0.6,0.1
			c0.1,0.1,0.3,0.1,0.4,0.3c0.1,0.1,0.3,0.3,0.3,0.4S549.6,451.5,549.6,451.6z M549,455.6v12.5h-2.2v-12.5H549z"/>
		<path class="st16" d="M552.8,468.1v-12.5h1.3c0.3,0,0.4,0.1,0.6,0.4l0.1,1.3c0.6-0.6,1.2-1,1.8-1.5c0.6-0.4,1.5-0.6,2.4-0.6
			c0.7,0,1.3,0.1,1.8,0.3s0.9,0.6,1.3,0.9s0.6,0.9,0.7,1.5c0.1,0.6,0.3,1.2,0.3,1.9v8H561v-7.9c0-0.9-0.1-1.6-0.6-2.2
			c-0.4-0.6-1-0.7-1.9-0.7c-0.6,0-1.2,0.1-1.8,0.4c-0.6,0.3-1,0.7-1.6,1.3v9.2H552.8z"/>
		<path class="st16" d="M571.6,455.3c0.7,0,1.5,0.1,2.1,0.4c0.6,0.3,1.2,0.6,1.6,1c0.4,0.4,0.9,1,1,1.8c0.3,0.7,0.4,1.5,0.4,2.4
			c0,0.3,0,0.6-0.1,0.7c-0.1,0.1-0.1,0.1-0.4,0.1h-8.3c0,0.7,0.1,1.5,0.3,2.1c0.1,0.6,0.4,1,0.7,1.5c0.3,0.4,0.7,0.7,1.2,0.9
			c0.4,0.1,1,0.3,1.6,0.3c0.6,0,1,0,1.5-0.1c0.4-0.1,0.7-0.3,1-0.4c0.3-0.1,0.6-0.3,0.7-0.4c0.1-0.1,0.3-0.1,0.4-0.1
			c0.1,0,0.3,0,0.4,0.1l0.6,0.7c-0.3,0.3-0.6,0.6-1,0.9c-0.4,0.3-0.7,0.4-1.2,0.6c-0.4,0.1-0.9,0.3-1.3,0.3
			c-0.4,0.1-0.9,0.1-1.3,0.1c-0.9,0-1.6-0.1-2.4-0.4c-0.7-0.3-1.3-0.7-1.9-1.3c-0.6-0.6-0.9-1.3-1.2-2.1c-0.3-0.9-0.4-1.8-0.4-2.8
			c0-0.9,0.1-1.6,0.4-2.4c0.3-0.7,0.6-1.5,1.2-1.9c0.4-0.6,1.2-1,1.8-1.3C569.9,455.5,570.7,455.3,571.6,455.3z M571.7,457
			c-1,0-1.9,0.3-2.5,0.9c-0.6,0.6-1,1.5-1.2,2.5h6.8c0-0.4,0-1-0.1-1.3c-0.1-0.4-0.3-0.7-0.6-1c-0.3-0.3-0.6-0.6-1-0.7
			C572.6,457.1,572.2,457,571.7,457z"/>
		<path class="st16" d="M579,459.8h6.1v1.9H579V459.8z"/>
		<path class="st16" d="M597.6,453.1c0,0.1-0.1,0.1-0.3,0.3c-0.1,0-0.1,0.1-0.3,0.1s-0.3,0-0.4-0.1c-0.1-0.1-0.4-0.3-0.7-0.4
			c-0.3-0.1-0.6-0.3-1-0.4s-0.9-0.1-1.5-0.1c-0.6,0-1,0-1.5,0.1c-0.4,0.1-0.7,0.3-1,0.6c-0.3,0.3-0.4,0.6-0.6,0.9
			c-0.1,0.3-0.1,0.7-0.1,1c0,0.4,0.1,0.9,0.3,1.2c0.3,0.3,0.6,0.6,0.9,0.9c0.3,0.3,0.9,0.4,1.3,0.6c0.4,0.1,1,0.3,1.5,0.6
			c0.6,0.1,1,0.4,1.5,0.6c0.4,0.3,0.9,0.4,1.3,0.9c0.4,0.3,0.7,0.7,0.9,1.3c0.3,0.4,0.3,1.2,0.3,1.8c0,0.7-0.1,1.5-0.4,2.2
			c-0.3,0.7-0.6,1.3-1.2,1.8c-0.4,0.4-1.2,0.9-1.9,1.2c-0.7,0.3-1.6,0.4-2.5,0.4c-1.2,0-2.2-0.1-3.1-0.6c-0.9-0.4-1.8-1-2.4-1.6
			l0.7-1.2c0-0.1,0.1-0.1,0.3-0.3c0.1,0,0.1-0.1,0.3-0.1s0.3,0.1,0.6,0.3c0.1,0.1,0.4,0.4,0.9,0.6c0.3,0.1,0.7,0.4,1.2,0.6
			c0.4,0.1,1,0.3,1.8,0.3c0.6,0,1-0.1,1.5-0.3c0.4-0.1,0.9-0.4,1.2-0.6c0.3-0.1,0.6-0.6,0.7-1c0.1-0.4,0.3-0.9,0.3-1.3
			c0-0.6-0.1-1-0.3-1.3c-0.3-0.3-0.6-0.6-0.9-0.9c-0.4-0.3-0.9-0.4-1.3-0.6c-0.4-0.1-1-0.3-1.5-0.4c-0.6-0.1-1-0.3-1.5-0.6
			c-0.4-0.1-0.9-0.4-1.3-0.9c-0.4-0.3-0.7-0.7-0.9-1.3s-0.3-1.2-0.3-1.9c0-0.6,0.1-1.2,0.3-1.8c0.3-0.6,0.6-1,1-1.5
			c0.4-0.4,1-0.7,1.8-1c0.7-0.3,1.5-0.4,2.4-0.4c1,0,1.9,0.1,2.7,0.4c0.7,0.3,1.5,0.7,2.1,1.3L597.6,453.1z"/>
		<path class="st16" d="M610.5,468.1h-1c-0.1,0-0.4,0-0.4-0.1c-0.1,0-0.1-0.1-0.3-0.4l-0.3-1.2c-0.3,0.3-0.6,0.6-0.9,0.7
			c-0.3,0.3-0.6,0.4-1,0.6c-0.3,0.1-0.7,0.3-1,0.3c-0.4,0.1-0.9,0.1-1.3,0.1c-0.4,0-0.9,0-1.3-0.1c-0.4-0.1-0.7-0.3-1-0.6
			c-0.3-0.3-0.6-0.6-0.7-1c-0.1-0.4-0.3-0.9-0.3-1.5c0-0.4,0.1-1,0.4-1.5c0.3-0.4,0.7-0.9,1.3-1.2c0.6-0.3,1.3-0.6,2.4-0.9
			c1-0.3,2.2-0.3,3.6-0.3v-0.9c0-1-0.1-1.8-0.6-2.2c-0.4-0.4-1-0.7-1.8-0.7c-0.6,0-1,0-1.3,0.1c-0.3,0.1-0.7,0.3-0.9,0.4
			c-0.3,0.1-0.4,0.3-0.7,0.4c-0.1,0.1-0.4,0.1-0.6,0.1s-0.3,0-0.4-0.1c-0.1-0.1-0.1-0.1-0.3-0.3l-0.4-0.7c0.7-0.6,1.5-1.2,2.2-1.5
			c0.7-0.3,1.6-0.4,2.7-0.4c0.7,0,1.3,0.1,1.9,0.3c0.6,0.3,1,0.6,1.3,0.9c0.3,0.3,0.6,0.9,0.9,1.5c0.1,0.6,0.3,1.2,0.3,1.9
			L610.5,468.1L610.5,468.1z M604.9,466.8c0.4,0,0.7,0,1-0.1c0.3-0.1,0.6-0.1,0.9-0.3c0.3-0.1,0.6-0.3,0.7-0.6
			c0.1-0.3,0.4-0.4,0.7-0.7v-2.5c-1,0-1.9,0-2.5,0.1c-0.7,0.1-1.3,0.3-1.8,0.4c-0.4,0.1-0.7,0.4-1,0.7c-0.1,0.3-0.3,0.6-0.3,0.9
			c0,0.3,0,0.6,0.1,0.9c0.1,0.3,0.3,0.4,0.4,0.6c0.1,0.1,0.4,0.3,0.6,0.3C604,466.5,604.6,466.8,604.9,466.8z"/>
		<path class="st16" d="M616.8,451.6c0,0.1,0,0.4-0.1,0.6c-0.1,0.1-0.1,0.3-0.3,0.4c-0.1,0.1-0.3,0.3-0.4,0.3
			c-0.1,0.1-0.4,0.1-0.6,0.1s-0.4,0-0.6-0.1c-0.1-0.1-0.3-0.1-0.4-0.3s-0.3-0.3-0.3-0.4c-0.1-0.1-0.1-0.4-0.1-0.6
			c0-0.1,0-0.4,0.1-0.6c0.1-0.1,0.1-0.3,0.3-0.4c0.1-0.1,0.3-0.3,0.4-0.3c0.1-0.1,0.4-0.1,0.6-0.1s0.4,0,0.6,0.1
			c0.1,0.1,0.3,0.1,0.4,0.3c0.1,0.1,0.3,0.3,0.3,0.4S616.8,451.5,616.8,451.6z M616.3,455.6v12.5h-2.2v-12.5H616.3z"/>
		<path class="st16" d="M620.2,468.1v-12.5h1.3c0.3,0,0.4,0.1,0.6,0.4l0.1,1.3c0.6-0.6,1.2-1,1.8-1.5c0.6-0.4,1.5-0.6,2.4-0.6
			c0.7,0,1.3,0.1,1.8,0.3c0.4,0.1,0.9,0.6,1.3,0.9s0.6,0.9,0.7,1.5c0.1,0.6,0.3,1.2,0.3,1.9v8h-2.2v-7.9c0-0.9-0.1-1.6-0.6-2.2
			s-1-0.7-1.9-0.7c-0.6,0-1.2,0.1-1.8,0.4c-0.6,0.3-1,0.7-1.6,1.3v9.2H620.2z"/>
		<path class="st16" d="M637.7,468.3c-1,0-1.8-0.3-2.2-0.9s-0.7-1.3-0.7-2.4v-7.7h-1.5c-0.1,0-0.3,0-0.3-0.1c0-0.1-0.1-0.1-0.1-0.3
			v-0.9l2.1-0.3l0.4-3.9c0-0.1,0-0.3,0.1-0.3c0.1,0,0.1-0.1,0.3-0.1h1v4.3h3.6v1.6h-3.6v7.6c0,0.6,0.1,0.9,0.4,1.2s0.6,0.4,1,0.4
			c0.3,0,0.4,0,0.6-0.1c0.1-0.1,0.3-0.1,0.4-0.1s0.3-0.1,0.3-0.1s0.1-0.1,0.3-0.1s0.1,0,0.3,0.1l0.6,1c-0.4,0.3-0.9,0.6-1.3,0.9
			C638.9,468.3,638.3,468.3,637.7,468.3z"/>
		<path class="st16" d="M642.6,459.8h6.1v1.9h-6.1V459.8z"/>
		<path class="st16" d="M667.5,459.2c0,1.3-0.1,2.5-0.6,3.6c-0.4,1-1,2.1-1.8,2.8c-0.7,0.7-1.6,1.3-2.8,1.8c-1,0.4-2.2,0.6-3.6,0.6
			H652v-17.7h6.7c1.3,0,2.5,0.1,3.6,0.6c1,0.4,1.9,1,2.8,1.8c0.7,0.7,1.3,1.8,1.8,2.8C667.3,456.7,667.5,457.8,667.5,459.2z
			 M664.9,459.2c0-1-0.1-2.1-0.4-3c-0.3-0.9-0.7-1.6-1.2-2.2c-0.6-0.6-1.2-1-1.9-1.3c-0.7-0.3-1.6-0.4-2.5-0.4h-4.3V466h4.2
			c0.9,0,1.8-0.1,2.5-0.4c0.7-0.3,1.5-0.7,1.9-1.3c0.6-0.6,0.9-1.3,1.2-2.2C664.8,461.3,664.9,460.4,664.9,459.2z"/>
		<path class="st16" d="M675.4,455.3c0.7,0,1.5,0.1,2.1,0.4c0.6,0.3,1.2,0.6,1.6,1c0.4,0.4,0.9,1,1,1.8c0.3,0.7,0.4,1.5,0.4,2.4
			c0,0.3,0,0.6-0.1,0.7c-0.1,0.1-0.1,0.1-0.4,0.1h-8.3c0,0.7,0.1,1.5,0.3,2.1c0.1,0.6,0.4,1,0.7,1.5c0.3,0.4,0.7,0.7,1.2,0.9
			c0.4,0.1,1,0.3,1.6,0.3c0.6,0,1,0,1.5-0.1c0.4-0.1,0.7-0.3,1-0.4c0.3-0.1,0.6-0.3,0.7-0.4c0.1-0.1,0.3-0.1,0.4-0.1s0.3,0,0.4,0.1
			l0.6,0.7c-0.3,0.3-0.6,0.6-1,0.9c-0.4,0.3-0.7,0.4-1.2,0.6c-0.4,0.1-0.9,0.3-1.3,0.3c-0.4,0.1-0.9,0.1-1.3,0.1
			c-0.9,0-1.6-0.1-2.4-0.4c-0.7-0.3-1.3-0.7-1.9-1.3c-0.6-0.6-0.9-1.3-1.2-2.1c-0.3-0.9-0.4-1.8-0.4-2.8c0-0.9,0.1-1.6,0.4-2.4
			c0.3-0.7,0.6-1.5,1.2-1.9c0.4-0.6,1.2-1,1.8-1.3C673.6,455.5,674.5,455.3,675.4,455.3z M675.4,457c-1,0-1.9,0.3-2.5,0.9
			c-0.6,0.6-1,1.5-1.2,2.5h6.8c0-0.4,0-1-0.1-1.3c-0.1-0.4-0.3-0.7-0.6-1c-0.3-0.3-0.6-0.6-1-0.7C676.4,457.1,676,457,675.4,457z"/>
		<path class="st16" d="M683.4,468.1v-12.5h1.3c0.3,0,0.4,0.1,0.6,0.4l0.1,1.3c0.6-0.6,1.2-1,1.8-1.5c0.6-0.4,1.5-0.6,2.4-0.6
			c0.7,0,1.3,0.1,1.8,0.3s0.9,0.6,1.3,0.9c0.4,0.3,0.6,0.9,0.7,1.5s0.3,1.2,0.3,1.9v8h-2.2v-7.9c0-0.9-0.1-1.6-0.6-2.2
			s-1-0.7-1.9-0.7c-0.6,0-1.2,0.1-1.8,0.4c-0.6,0.3-1,0.7-1.6,1.3v9.2H683.4z"/>
		<path class="st16" d="M700,451.6c0,0.1,0,0.4-0.1,0.6c-0.1,0.1-0.1,0.3-0.3,0.4c-0.1,0.1-0.3,0.3-0.4,0.3
			c-0.1,0.1-0.4,0.1-0.6,0.1c-0.1,0-0.4,0-0.6-0.1c-0.1-0.1-0.3-0.1-0.4-0.3c-0.1-0.1-0.3-0.3-0.3-0.4c-0.1-0.1-0.1-0.4-0.1-0.6
			c0-0.1,0-0.4,0.1-0.6c0.1-0.1,0.1-0.3,0.3-0.4c0.1-0.1,0.3-0.3,0.4-0.3c0.1-0.1,0.4-0.1,0.6-0.1c0.1,0,0.4,0,0.6,0.1
			s0.3,0.1,0.4,0.3c0.1,0.1,0.3,0.3,0.3,0.4S700,451.5,700,451.6z M699.6,455.6v12.5h-2.2v-12.5H699.6z"/>
		<path class="st16" d="M710.6,457.7c-0.1,0.1-0.3,0.3-0.4,0.3c-0.1,0-0.3,0-0.4-0.1c-0.1-0.1-0.3-0.1-0.6-0.3
			c-0.3-0.1-0.4-0.1-0.7-0.3c-0.3-0.1-0.7-0.1-1.2-0.1c-0.3,0-0.7,0-1,0.1c-0.3,0.1-0.6,0.3-0.7,0.4c-0.1,0.1-0.3,0.3-0.4,0.6
			c-0.1,0.1-0.1,0.4-0.1,0.7c0,0.3,0.1,0.6,0.3,0.7s0.4,0.4,0.7,0.6c0.3,0.1,0.6,0.3,1,0.4c0.4,0.1,0.7,0.3,1.2,0.4
			c0.4,0.1,0.7,0.3,1.2,0.4c0.4,0.1,0.7,0.3,1,0.6c0.3,0.3,0.6,0.6,0.7,0.9c0.1,0.3,0.3,0.7,0.3,1.3s-0.1,1-0.3,1.6
			c-0.1,0.4-0.4,0.9-0.9,1.3c-0.4,0.3-0.9,0.6-1.5,0.9c-0.6,0.1-1.2,0.3-2.1,0.3c-0.9,0-1.6-0.1-2.4-0.4c-0.7-0.3-1.3-0.6-1.8-1
			l0.4-0.9c0-0.1,0.1-0.1,0.3-0.3c0.1,0,0.1-0.1,0.3-0.1s0.3,0,0.4,0.1c0.1,0.1,0.3,0.3,0.6,0.4c0.3,0.1,0.4,0.3,0.9,0.4
			s0.7,0.1,1.2,0.1s0.7,0,1.2-0.1c0.3-0.1,0.6-0.3,0.7-0.4c0.1-0.1,0.4-0.4,0.4-0.6c0.1-0.3,0.1-0.4,0.1-0.7s-0.1-0.6-0.3-0.9
			c-0.1-0.3-0.4-0.4-0.7-0.6c-0.3-0.1-0.6-0.3-1-0.4c-0.4-0.1-0.7-0.3-1.2-0.4c-0.4-0.1-0.7-0.3-1.2-0.4c-0.4-0.1-0.7-0.4-1-0.6
			c-0.3-0.3-0.6-0.6-0.7-0.9c-0.1-0.4-0.3-0.9-0.3-1.3c0-0.4,0.1-0.9,0.3-1.3s0.4-0.9,0.9-1.2c0.4-0.3,0.9-0.6,1.3-0.7
			c0.6-0.1,1.2-0.3,1.9-0.3c0.9,0,1.6,0.1,2.2,0.4c0.6,0.3,1.2,0.6,1.6,1L710.6,457.7z"/>
	</g>
	<g>
		<path class="st20" d="M223.2,488.3v7h-2.4v-7l-6.5-10.7h2.1c0.1,0,0.4,0,0.4,0.1c0.1,0.1,0.3,0.3,0.3,0.4l4,6.8
			c0.1,0.3,0.3,0.6,0.4,0.7c0.1,0.3,0.1,0.4,0.3,0.7c0.1-0.3,0.1-0.4,0.3-0.7c0.1-0.3,0.3-0.6,0.4-0.7l4-6.8c0-0.1,0.1-0.3,0.3-0.4
			c0.1-0.1,0.3-0.1,0.4-0.1h2.1L223.2,488.3z"/>
		<path class="st20" d="M228.7,482.8h1.8c0.1,0,0.3,0,0.4,0.1c0.1,0.1,0.1,0.1,0.3,0.3l3.1,8c0.1,0.3,0.1,0.6,0.3,0.9
			c0.1,0.3,0.1,0.6,0.1,0.9c0-0.3,0.1-0.6,0.1-0.9c0.1-0.3,0.1-0.6,0.3-0.9l3.3-8c0-0.1,0.1-0.3,0.3-0.3c0.1-0.1,0.3-0.1,0.4-0.1
			h1.8l-5.1,12.5H234L228.7,482.8z"/>
		<path class="st20" d="M247.7,482.7c0.7,0,1.5,0.1,2.1,0.4c0.6,0.3,1.2,0.6,1.6,1c0.4,0.4,0.9,1,1,1.8c0.3,0.7,0.4,1.5,0.4,2.4
			c0,0.3,0,0.6-0.1,0.7c-0.1,0.1-0.1,0.1-0.4,0.1H244c0,0.7,0.1,1.5,0.3,2.1c0.1,0.6,0.4,1,0.7,1.5c0.3,0.4,0.7,0.7,1.2,0.9
			c0.4,0.1,1,0.3,1.6,0.3c0.6,0,1,0,1.5-0.1c0.4-0.1,0.7-0.3,1-0.4c0.3-0.1,0.6-0.3,0.7-0.4c0.1-0.1,0.3-0.1,0.4-0.1s0.3,0,0.4,0.1
			l0.6,0.7c-0.3,0.3-0.6,0.6-1,0.9s-0.7,0.4-1.2,0.6c-0.4,0.1-0.9,0.3-1.3,0.3c-0.4,0.1-0.9,0.1-1.3,0.1c-0.9,0-1.6-0.1-2.4-0.4
			c-0.7-0.3-1.3-0.7-1.9-1.3c-0.6-0.6-0.9-1.3-1.2-2.1c-0.3-0.9-0.4-1.8-0.4-2.8c0-0.9,0.1-1.6,0.4-2.4c0.3-0.7,0.6-1.5,1.2-1.9
			c0.4-0.6,1.2-1,1.8-1.3C245.9,482.8,246.7,482.7,247.7,482.7z M247.7,484.3c-1,0-1.9,0.3-2.5,0.9s-1,1.5-1.2,2.5h6.8
			c0-0.4,0-1-0.1-1.3c-0.1-0.4-0.3-0.7-0.6-1c-0.3-0.3-0.6-0.6-1-0.7C248.6,484.3,248.2,484.3,247.7,484.3z"/>
		<path class="st20" d="M258.1,477.2v18.3h-2.2v-18.3H258.1z"/>
		<path class="st20" d="M265,479c0,0.1,0,0.4-0.1,0.6c-0.1,0.1-0.1,0.3-0.3,0.4s-0.3,0.3-0.4,0.3c-0.1,0.1-0.4,0.1-0.6,0.1
			c-0.1,0-0.4,0-0.6-0.1c-0.1-0.1-0.3-0.1-0.4-0.3c-0.1-0.1-0.3-0.3-0.3-0.4c-0.1-0.1-0.1-0.4-0.1-0.6c0-0.1,0-0.4,0.1-0.6
			c0.1-0.1,0.1-0.3,0.3-0.4c0.1-0.1,0.3-0.3,0.4-0.3c0.1-0.1,0.4-0.1,0.6-0.1c0.1,0,0.4,0,0.6,0.1c0.1,0.1,0.3,0.1,0.4,0.3
			c0.1,0.1,0.3,0.3,0.3,0.4S265,478.7,265,479z M264.4,482.8v12.5h-2.2v-12.5H264.4z"/>
		<path class="st20" d="M268.4,495.5V483h1.3c0.3,0,0.4,0.1,0.6,0.4l0.1,1.3c0.6-0.6,1.2-1,1.8-1.5c0.6-0.4,1.5-0.6,2.4-0.6
			c0.7,0,1.3,0.1,1.8,0.3s0.9,0.6,1.3,0.9c0.4,0.3,0.6,0.9,0.7,1.5c0.1,0.6,0.3,1.2,0.3,1.9v8h-2.2v-8c0-0.9-0.1-1.6-0.6-2.2
			c-0.4-0.6-1-0.7-1.9-0.7c-0.6,0-1.2,0.1-1.8,0.4c-0.6,0.3-1,0.7-1.6,1.3v9.2h-2.2L268.4,495.5L268.4,495.5z"/>
		<path class="st20" d="M287,482.7c0.7,0,1.5,0.1,2.1,0.4c0.6,0.3,1.2,0.6,1.6,1c0.4,0.4,0.9,1,1,1.8c0.3,0.7,0.4,1.5,0.4,2.4
			c0,0.3,0,0.6-0.1,0.7s-0.1,0.1-0.4,0.1h-8.3c0,0.7,0.1,1.5,0.3,2.1c0.1,0.6,0.4,1,0.7,1.5c0.3,0.4,0.7,0.7,1.2,0.9
			c0.4,0.1,1,0.3,1.6,0.3c0.6,0,1,0,1.5-0.1s0.7-0.3,1-0.4c0.3-0.1,0.6-0.3,0.7-0.4c0.1-0.1,0.3-0.1,0.4-0.1c0.1,0,0.3,0,0.4,0.1
			l0.6,0.7c-0.3,0.3-0.6,0.6-1,0.9s-0.7,0.4-1.2,0.6c-0.4,0.1-0.9,0.3-1.3,0.3c-0.4,0.1-0.9,0.1-1.3,0.1c-0.9,0-1.6-0.1-2.4-0.4
			c-0.7-0.3-1.3-0.7-1.9-1.3c-0.6-0.6-0.9-1.3-1.2-2.1c-0.3-0.9-0.4-1.8-0.4-2.8c0-0.9,0.1-1.6,0.4-2.4c0.3-0.7,0.6-1.5,1.2-1.9
			c0.4-0.6,1.2-1,1.8-1.3C285.3,482.8,286.1,482.7,287,482.7z M287.1,484.3c-1,0-1.9,0.3-2.5,0.9s-1,1.5-1.2,2.5h6.8
			c0-0.4,0-1-0.1-1.3c-0.1-0.4-0.3-0.7-0.6-1c-0.3-0.3-0.6-0.6-1-0.7C288,484.3,287.6,484.3,287.1,484.3z"/>
		<path class="st20" d="M302.1,484.9c-0.1,0.1-0.3,0.3-0.4,0.3s-0.3,0-0.4-0.1c-0.1-0.1-0.3-0.1-0.6-0.3c-0.3-0.1-0.4-0.1-0.7-0.3
			c-0.3-0.1-0.7-0.1-1-0.1c-0.3,0-0.7,0-1,0.1c-0.3,0.1-0.6,0.3-0.7,0.4c-0.1,0.1-0.3,0.3-0.4,0.6c-0.1,0.1-0.1,0.4-0.1,0.7
			c0,0.3,0.1,0.6,0.3,0.7c0.1,0.1,0.4,0.4,0.7,0.6c0.3,0.1,0.6,0.3,1,0.4c0.4,0.1,0.7,0.3,1.2,0.4c0.4,0.1,0.7,0.3,1.2,0.4
			c0.4,0.1,0.7,0.3,1,0.6c0.3,0.3,0.6,0.6,0.7,0.9s0.3,0.7,0.3,1.3s-0.1,1-0.3,1.6c-0.1,0.4-0.4,0.9-0.9,1.3
			c-0.4,0.3-0.9,0.6-1.5,0.9c-0.6,0.1-1.2,0.3-2.1,0.3s-1.6-0.1-2.4-0.4c-0.7-0.3-1.3-0.6-1.8-1l0.4-0.9c0-0.1,0.1-0.1,0.3-0.3
			c0.1,0,0.1-0.1,0.3-0.1c0.1,0,0.3,0,0.4,0.1c0.1,0.1,0.3,0.3,0.6,0.4c0.3,0.1,0.4,0.3,0.9,0.4c0.4,0.1,0.7,0.1,1.2,0.1
			s0.7,0,1.2-0.1c0.3-0.1,0.6-0.3,0.7-0.4c0.1-0.1,0.4-0.4,0.4-0.6c0.1-0.3,0.1-0.4,0.1-0.7s-0.1-0.6-0.3-0.9
			c-0.1-0.3-0.4-0.4-0.7-0.6c-0.3-0.1-0.6-0.3-1-0.4c-0.4-0.1-0.7-0.3-1.2-0.4c-0.4-0.1-0.7-0.3-1.2-0.4s-0.7-0.4-1-0.6
			c-0.3-0.3-0.6-0.6-0.7-0.9c-0.1-0.4-0.3-0.9-0.3-1.3c0-0.4,0.1-0.9,0.3-1.3c0.1-0.4,0.4-0.9,0.9-1.2c0.4-0.3,0.9-0.6,1.3-0.7
			c0.6-0.1,1.2-0.3,1.9-0.3c0.9,0,1.6,0.1,2.2,0.4c0.6,0.3,1.2,0.6,1.6,1L302.1,484.9z"/>
	</g>
	<g>
		<path class="st14" d="M523.5,506.3v6.7h-2.4v-17.7h5.2c1.2,0,2.1,0.1,3,0.4c0.9,0.3,1.5,0.6,2.1,1c0.6,0.4,0.9,1,1.2,1.8
			c0.3,0.7,0.4,1.5,0.4,2.2c0,0.9-0.1,1.6-0.4,2.2c-0.3,0.6-0.7,1.3-1.3,1.8c-0.6,0.4-1.2,0.9-2.1,1.2c-0.9,0.3-1.8,0.4-2.8,0.4
			h-2.8V506.3z M523.5,504.4h2.8c0.7,0,1.3-0.1,1.8-0.3c0.6-0.1,0.9-0.4,1.3-0.7c0.3-0.3,0.6-0.7,0.7-1.2c0.1-0.4,0.3-0.9,0.3-1.5
			c0-1.2-0.3-2.1-1-2.7c-0.7-0.6-1.8-0.9-3.1-0.9h-2.8V504.4z"/>
		<path class="st14" d="M544.2,512.9h-1c-0.1,0-0.4,0-0.4-0.1c-0.1,0-0.1-0.1-0.3-0.4l-0.3-1.2c-0.3,0.3-0.6,0.6-0.9,0.7
			c-0.3,0.3-0.6,0.4-1,0.6c-0.3,0.1-0.7,0.3-1,0.3c-0.4,0.1-0.9,0.1-1.3,0.1c-0.4,0-0.9,0-1.3-0.1s-0.7-0.3-1-0.6
			c-0.3-0.3-0.6-0.6-0.7-1c-0.1-0.4-0.3-0.9-0.3-1.5c0-0.4,0.1-1,0.4-1.5c0.3-0.4,0.7-0.9,1.3-1.2c0.6-0.3,1.3-0.6,2.4-0.9
			c1-0.3,2.2-0.3,3.6-0.3v-1c0-1-0.1-1.8-0.6-2.2c-0.4-0.4-1-0.7-1.8-0.7c-0.6,0-1,0-1.3,0.1c-0.3,0.1-0.7,0.3-0.9,0.4
			c-0.3,0.1-0.4,0.3-0.7,0.4c-0.1,0.1-0.4,0.1-0.6,0.1c-0.1,0-0.3,0-0.4-0.1c-0.1-0.1-0.1-0.1-0.3-0.3l-0.4-0.7
			c0.7-0.6,1.5-1.2,2.2-1.5c0.7-0.3,1.6-0.4,2.7-0.4c0.7,0,1.3,0.1,1.9,0.3c0.6,0.3,1,0.6,1.3,0.9c0.3,0.3,0.6,0.9,0.9,1.5
			c0.1,0.6,0.3,1.2,0.3,1.9L544.2,512.9L544.2,512.9z M538.4,511.5c0.4,0,0.7,0,1-0.1c0.3-0.1,0.6-0.1,0.9-0.3
			c0.3-0.1,0.6-0.3,0.7-0.6c0.1-0.3,0.4-0.4,0.7-0.7v-2.5c-1,0-1.9,0-2.5,0.1c-0.7,0.1-1.3,0.3-1.8,0.4c-0.4,0.1-0.7,0.4-1,0.7
			c-0.1,0.3-0.3,0.6-0.3,0.9s0,0.6,0.1,0.9c0.1,0.3,0.3,0.4,0.4,0.6c0.1,0.1,0.4,0.3,0.6,0.3C537.5,511.2,538.3,511.5,538.4,511.5z"
			/>
		<path class="st14" d="M547.5,512.9v-12.5h1.2c0.3,0,0.4,0,0.4,0.1s0.1,0.3,0.1,0.4l0.1,1.9c0.4-0.9,0.9-1.5,1.6-2.1
			s1.3-0.7,2.2-0.7c0.3,0,0.6,0,0.9,0.1c0.3,0.1,0.6,0.1,0.7,0.3l-0.3,1.6c0,0.1-0.1,0.3-0.4,0.3c-0.1,0-0.3,0-0.6-0.1
			c-0.3-0.1-0.6-0.1-1-0.1c-0.7,0-1.3,0.1-1.9,0.6c-0.6,0.4-0.9,1-1.3,1.9v8h-1.8V512.9z"/>
		<path class="st14" d="M560.4,496.5c0,0.1,0,0.4-0.1,0.6c-0.1,0.1-0.1,0.3-0.3,0.4c-0.1,0.1-0.3,0.3-0.4,0.3
			c-0.1,0.1-0.4,0.1-0.6,0.1s-0.4,0-0.6-0.1c-0.1-0.1-0.3-0.1-0.4-0.3s-0.3-0.3-0.3-0.4c-0.1-0.1-0.1-0.4-0.1-0.6
			c0-0.1,0-0.4,0.1-0.6c0.1-0.1,0.1-0.3,0.3-0.4c0.1-0.1,0.3-0.3,0.4-0.3c0.1-0.1,0.4-0.1,0.6-0.1s0.4,0,0.6,0.1
			c0.1,0.1,0.3,0.1,0.4,0.3c0.1,0.1,0.3,0.3,0.3,0.4S560.4,496.2,560.4,496.5z M560,500.4v12.5h-2.2v-12.5H560z"/>
		<path class="st14" d="M571,502.5c-0.1,0.1-0.3,0.3-0.4,0.3s-0.3,0-0.4-0.1c-0.1-0.1-0.3-0.1-0.6-0.3c-0.3-0.1-0.4-0.1-0.7-0.3
			c-0.3-0.1-0.7-0.1-1-0.1c-0.3,0-0.7,0-1,0.1c-0.3,0.1-0.6,0.3-0.7,0.4c-0.1,0.1-0.3,0.3-0.4,0.6c-0.1,0.1-0.1,0.4-0.1,0.7
			s0.1,0.6,0.3,0.7c0.1,0.1,0.4,0.4,0.7,0.6c0.3,0.1,0.6,0.3,1,0.4c0.4,0.1,0.7,0.3,1.2,0.4c0.4,0.1,0.7,0.3,1.2,0.4
			c0.4,0.1,0.7,0.3,1,0.6c0.3,0.3,0.6,0.6,0.7,0.9c0.1,0.3,0.3,0.7,0.3,1.3s-0.1,1-0.3,1.6c-0.1,0.4-0.4,0.9-0.9,1.3
			c-0.4,0.3-0.9,0.6-1.5,0.9c-0.6,0.1-1.2,0.3-2.1,0.3s-1.6-0.1-2.4-0.4c-0.7-0.3-1.3-0.6-1.8-1l0.4-0.9c0-0.1,0.1-0.1,0.3-0.3
			c0.1,0,0.1-0.1,0.3-0.1c0.1,0,0.3,0,0.4,0.1c0.1,0.1,0.3,0.3,0.6,0.4c0.3,0.1,0.4,0.3,0.9,0.4s0.7,0.1,1.2,0.1s0.7,0,1.2-0.1
			c0.3-0.1,0.6-0.3,0.7-0.4c0.1-0.1,0.4-0.4,0.4-0.6c0.1-0.3,0.1-0.4,0.1-0.7c0-0.3-0.1-0.6-0.3-0.9s-0.4-0.4-0.7-0.6
			s-0.6-0.3-1-0.4c-0.4-0.1-0.7-0.3-1.2-0.4c-0.4-0.1-0.7-0.3-1.2-0.4c-0.4-0.1-0.7-0.4-1-0.6c-0.3-0.3-0.6-0.6-0.7-0.9
			c-0.1-0.4-0.3-0.9-0.3-1.3c0-0.4,0.1-0.9,0.3-1.3c0.1-0.4,0.4-0.9,0.9-1.2c0.4-0.3,0.9-0.6,1.3-0.7c0.6-0.1,1.2-0.3,1.9-0.3
			c0.9,0,1.6,0.1,2.2,0.4c0.6,0.3,1.2,0.6,1.6,1L571,502.5z"/>
	</g>
	<g>
		<path class="st20" d="M349,673.1v1.9h-8.5v5.9h6.8v1.9h-6.8v6.1h8.5v1.9h-10.9v-17.7L349,673.1L349,673.1z"/>
		<path class="st20" d="M359.2,680.4c-0.1,0.1-0.3,0.3-0.4,0.3c-0.1,0-0.3,0-0.4-0.1c-0.1-0.1-0.3-0.1-0.6-0.3
			c-0.3-0.1-0.4-0.1-0.7-0.3c-0.3-0.1-0.7-0.1-1-0.1c-0.3,0-0.7,0-1,0.1c-0.3,0.1-0.6,0.3-0.7,0.4c-0.1,0.1-0.3,0.3-0.4,0.6
			c-0.1,0.1-0.1,0.4-0.1,0.7c0,0.3,0.1,0.6,0.3,0.7c0.1,0.1,0.4,0.4,0.7,0.6c0.3,0.1,0.6,0.3,1,0.4s0.7,0.3,1.2,0.4
			c0.4,0.1,0.7,0.3,1.2,0.4c0.4,0.1,0.7,0.3,1,0.6c0.3,0.3,0.6,0.6,0.7,0.9c0.1,0.3,0.3,0.7,0.3,1.3c0,0.6-0.1,1-0.3,1.6
			c-0.1,0.4-0.4,0.9-0.9,1.3c-0.4,0.3-0.9,0.6-1.5,0.9c-0.6,0.1-1.2,0.3-2.1,0.3s-1.6-0.1-2.4-0.4s-1.3-0.6-1.8-1l0.4-0.9
			c0-0.1,0.1-0.1,0.3-0.3c0.1,0,0.1-0.1,0.3-0.1c0.1,0,0.3,0,0.4,0.1c0.1,0.1,0.3,0.3,0.6,0.4c0.3,0.1,0.4,0.3,0.9,0.4
			c0.4,0.1,0.7,0.1,1.2,0.1c0.4,0,0.7,0,1.2-0.1c0.3-0.1,0.6-0.3,0.7-0.4c0.1-0.1,0.4-0.4,0.4-0.6c0.1-0.3,0.1-0.4,0.1-0.7
			c0-0.3-0.1-0.6-0.3-0.9c-0.1-0.3-0.4-0.4-0.7-0.6c-0.3-0.1-0.6-0.3-1-0.4c-0.4-0.1-0.7-0.3-1.2-0.4c-0.4-0.1-0.7-0.3-1.2-0.4
			c-0.4-0.1-0.7-0.4-1-0.6c-0.3-0.3-0.6-0.6-0.7-0.9c-0.1-0.4-0.3-0.9-0.3-1.3c0-0.4,0.1-0.9,0.3-1.3c0.1-0.4,0.4-0.9,0.9-1.2
			c0.4-0.3,0.9-0.6,1.3-0.7c0.6-0.1,1.2-0.3,1.9-0.3c0.9,0,1.6,0.1,2.2,0.4c0.6,0.3,1.2,0.6,1.6,1L359.2,680.4z"/>
		<path class="st20" d="M369.9,680.4c-0.1,0.1-0.3,0.3-0.4,0.3c-0.1,0-0.3,0-0.4-0.1s-0.3-0.1-0.6-0.3c-0.3-0.1-0.4-0.1-0.7-0.3
			s-0.7-0.1-1-0.1c-0.3,0-0.7,0-1,0.1c-0.3,0.1-0.6,0.3-0.7,0.4c-0.1,0.1-0.3,0.3-0.4,0.6c-0.1,0.1-0.1,0.4-0.1,0.7
			c0,0.3,0.1,0.6,0.3,0.7c0.1,0.1,0.4,0.4,0.7,0.6c0.3,0.1,0.6,0.3,1,0.4c0.4,0.1,0.7,0.3,1.2,0.4c0.4,0.1,0.7,0.3,1.2,0.4
			c0.4,0.1,0.7,0.3,1,0.6c0.3,0.3,0.6,0.6,0.7,0.9s0.3,0.7,0.3,1.3c0,0.6-0.1,1-0.3,1.6c-0.1,0.4-0.4,0.9-0.9,1.3
			c-0.4,0.3-0.9,0.6-1.5,0.9c-0.6,0.1-1.2,0.3-2.1,0.3c-0.9,0-1.6-0.1-2.4-0.4c-0.7-0.3-1.3-0.6-1.8-1l0.4-0.9
			c0-0.1,0.1-0.1,0.3-0.3c0.1,0,0.1-0.1,0.3-0.1c0.1,0,0.3,0,0.4,0.1c0.1,0.1,0.3,0.3,0.6,0.4c0.3,0.1,0.4,0.3,0.9,0.4
			c0.4,0.1,0.7,0.1,1.2,0.1c0.4,0,0.7,0,1.2-0.1c0.3-0.1,0.6-0.3,0.7-0.4c0.1-0.1,0.4-0.4,0.4-0.6c0.1-0.3,0.1-0.4,0.1-0.7
			c0-0.3-0.1-0.6-0.3-0.9c-0.1-0.3-0.4-0.4-0.7-0.6c-0.3-0.1-0.6-0.3-1-0.4c-0.4-0.1-0.7-0.3-1.2-0.4c-0.4-0.1-0.7-0.3-1.2-0.4
			c-0.4-0.1-0.7-0.4-1-0.6c-0.3-0.3-0.6-0.6-0.7-0.9c-0.1-0.4-0.3-0.9-0.3-1.3c0-0.4,0.1-0.9,0.3-1.3c0.1-0.4,0.4-0.9,0.9-1.2
			c0.4-0.3,0.9-0.6,1.3-0.7c0.6-0.1,1.2-0.3,1.9-0.3c0.9,0,1.6,0.1,2.2,0.4s1.2,0.6,1.6,1L369.9,680.4z"/>
		<path class="st20" d="M378.6,678.2c0.9,0,1.8,0.1,2.5,0.4c0.7,0.3,1.3,0.7,1.9,1.3c0.4,0.6,0.9,1.2,1.2,2.1
			c0.3,0.7,0.4,1.6,0.4,2.7s-0.1,1.9-0.4,2.7c-0.3,0.7-0.7,1.5-1.2,2.1c-0.4,0.6-1.2,1-1.9,1.3c-0.7,0.3-1.6,0.4-2.5,0.4
			c-0.9,0-1.8-0.1-2.5-0.4c-0.7-0.3-1.3-0.7-1.9-1.3c-0.4-0.6-0.9-1.2-1.2-2.1c-0.3-0.7-0.4-1.6-0.4-2.7c0-1,0.1-1.9,0.4-2.7
			s0.7-1.5,1.2-2.1c0.4-0.6,1.2-1,1.9-1.3C376.8,678.4,377.7,678.2,378.6,678.2z M378.6,689.4c1.2,0,2.2-0.4,2.8-1.2
			c0.6-0.9,0.9-1.9,0.9-3.4c0-1.5-0.3-2.7-0.9-3.4c-0.6-0.9-1.5-1.2-2.8-1.2c-0.6,0-1.2,0.1-1.6,0.3c-0.4,0.1-0.9,0.6-1.2,0.9
			c-0.3,0.4-0.6,0.9-0.7,1.5c-0.1,0.6-0.3,1.2-0.3,1.9s0.1,1.3,0.3,1.9c0.1,0.6,0.4,1,0.7,1.5s0.7,0.7,1.2,0.9
			C377.4,689.2,378,689.4,378.6,689.4z"/>
		<path class="st20" d="M387.2,691v-12.5h1.3c0.3,0,0.4,0.1,0.6,0.4l0.1,1.3c0.6-0.6,1.2-1,1.8-1.5c0.6-0.4,1.5-0.6,2.4-0.6
			c0.7,0,1.3,0.1,1.8,0.3c0.4,0.1,0.9,0.6,1.3,0.9c0.4,0.3,0.6,0.9,0.7,1.5c0.1,0.6,0.3,1.2,0.3,1.9v8h-2.2v-8
			c0-0.9-0.1-1.6-0.6-2.2c-0.4-0.6-1-0.7-1.9-0.7c-0.6,0-1.2,0.1-1.8,0.4c-0.6,0.3-1,0.7-1.6,1.3v9.2h-2.2L387.2,691L387.2,691z"/>
		<path class="st20" d="M401,691v-12.5h1.3c0.3,0,0.4,0.1,0.6,0.4l0.1,1.3c0.6-0.6,1.2-1,1.8-1.5c0.6-0.4,1.5-0.6,2.4-0.6
			c0.7,0,1.3,0.1,1.8,0.3c0.4,0.1,0.9,0.6,1.3,0.9c0.4,0.3,0.6,0.9,0.7,1.5c0.1,0.6,0.3,1.2,0.3,1.9v8h-2.2v-8
			c0-0.9-0.1-1.6-0.6-2.2c-0.4-0.6-1-0.7-1.9-0.7c-0.6,0-1.2,0.1-1.8,0.4c-0.6,0.3-1,0.7-1.6,1.3v9.2H401V691z"/>
		<path class="st20" d="M419.8,678.2c0.7,0,1.5,0.1,2.1,0.4s1.2,0.6,1.6,1c0.4,0.4,0.9,1,1,1.8c0.3,0.7,0.4,1.5,0.4,2.4
			c0,0.3,0,0.6-0.1,0.7c-0.1,0.1-0.1,0.1-0.4,0.1H416c0,0.7,0.1,1.5,0.3,2.1c0.1,0.6,0.4,1,0.7,1.5c0.3,0.4,0.7,0.7,1.2,0.9
			c0.4,0.1,1,0.3,1.6,0.3s1,0,1.5-0.1c0.4-0.1,0.7-0.3,1-0.4c0.3-0.1,0.6-0.3,0.7-0.4c0.1-0.1,0.3-0.1,0.4-0.1c0.1,0,0.3,0,0.4,0.1
			l0.6,0.7c-0.3,0.3-0.6,0.6-1,0.9c-0.4,0.3-0.7,0.4-1.2,0.6c-0.4,0.1-0.9,0.3-1.3,0.3c-0.4,0.1-0.9,0.1-1.3,0.1
			c-0.9,0-1.6-0.1-2.4-0.4c-0.7-0.3-1.3-0.7-1.9-1.3c-0.6-0.6-0.9-1.3-1.2-2.1c-0.3-0.9-0.4-1.8-0.4-2.8c0-0.9,0.1-1.6,0.4-2.4
			c0.3-0.7,0.6-1.5,1.2-1.9c0.4-0.6,1.2-1,1.8-1.3C418,678.4,418.9,678.2,419.8,678.2z M419.8,679.8c-1,0-1.9,0.3-2.5,0.9
			c-0.6,0.6-1,1.5-1.2,2.5h6.8c0-0.4,0-1-0.1-1.3c-0.1-0.4-0.3-0.7-0.6-1c-0.3-0.3-0.6-0.6-1-0.7
			C420.8,679.8,420.4,679.8,419.8,679.8z"/>
	</g>
	<line class="st21" x1="199.4" y1="557.3" x2="387" y2="557.3"/>
	<line class="st22" x1="416.6" y1="521.6" x2="571.3" y2="521.6"/>
	<line class="st23" x1="458" y1="566.7" x2="666.1" y2="566.7"/>
	<line class="st24" x1="462" y1="476.6" x2="711.5" y2="476.6"/>
</g>
<circle class="st25" cx="418.9" cy="525.5" r="15.6"/>
<circle class="st26" cx="375.7" cy="641.5" r="15.6"/>
<circle class="st25" cx="448.6" cy="488" r="15.6"/>
</svg>
