<?xml version="1.0" encoding="utf-8"?>
<!-- Generator: Adobe Illustrator 22.0.1, SVG Export Plug-In . SVG Version: 6.00 Build 0)  -->
<svg version="1.1" xmlns="http://www.w3.org/2000/svg" xmlns:xlink="http://www.w3.org/1999/xlink" x="0px" y="0px"
	 viewBox="0 0 37 23" style="enable-background:new 0 0 37 23;" xml:space="preserve">
<style type="text/css">
	.st0{clip-path:url(#SVGID_2_);fill:#CB1D23;}
	.st1{clip-path:url(#SVGID_2_);fill:#F7DE29;}
</style>
<g id="Layer_1">
</g>
<g id="_x34_">
	<g id="CHINA_3_">
		<g>
			<g>
				<defs>
					<rect id="SVGID_1_" width="37" height="23"/>
				</defs>
				<clipPath id="SVGID_2_">
					<use xlink:href="#SVGID_1_"  style="overflow:visible;"/>
				</clipPath>
				<rect class="st0" width="37" height="23"/>
				<polygon class="st1" points="3.6,8.3 4.3,6 2.4,4.6 4.7,4.6 5.4,2.3 6.1,4.6 8.4,4.6 6.5,6 7.2,8.3 5.4,6.9 				"/>
				<polygon class="st1" points="9.9,9.6 10.6,9.9 11.2,9.2 11.1,10.1 11.9,10.4 11.1,10.6 11,11.5 10.6,10.8 9.8,11 10.3,10.3 				
					"/>
				<polygon class="st1" points="14,5.2 13.2,5 12.8,5.8 12.7,4.9 11.9,4.8 12.6,4.4 12.5,3.5 13.1,4.1 13.8,3.7 13.4,4.5 				"/>
				<polygon class="st1" points="12.3,9.1 12.5,8.2 11.9,7.7 12.7,7.7 12.9,6.9 13.2,7.7 14,7.7 13.4,8.2 13.6,9.1 12.9,8.6 				"/>
				<polygon class="st1" points="9.9,1.5 10.7,1.8 11.2,1.2 11.1,2.1 11.9,2.4 11.1,2.6 11,3.5 10.6,2.7 9.7,2.9 10.3,2.2 				"/>
			</g>
		</g>
	</g>
</g>
</svg>
