<?xml version="1.0" encoding="utf-8"?>
<!-- Generator: Adobe Illustrator 22.0.1, SVG Export Plug-In . SVG Version: 6.00 Build 0)  -->
<svg version="1.1" id="Layer_3" xmlns="http://www.w3.org/2000/svg" xmlns:xlink="http://www.w3.org/1999/xlink" x="0px" y="0px"
	 viewBox="0 0 218 30" style="enable-background:new 0 0 218 30;" xml:space="preserve">
<style type="text/css">
	.st0{fill:#FFFFFF;}
	.st1{opacity:0.75;}
</style>
<g id="gandi">
	<g>
		<path class="st0" d="M18.2,7.5c-0.8-0.6-1.8-0.4-2.4,0.4c-0.7,1-1.4,1.7-2.2,2.2c-0.1,0-0.2,0.1-0.2,0.1c-0.1,0-0.1,0.1-0.2,0.1
			c-0.8,0.4-1.7,0.6-2.7,0.6s-1.9-0.2-2.7-0.6C6.8,9.8,5.9,9,5.1,7.9c-0.5-0.8-1.6-1-2.4-0.4C2,8,1.8,9.1,2.3,9.9
			c1.1,1.6,2.5,2.8,4,3.6c0.3,0.1,0.6,0.3,0.9,0.4c-1.3,1-2.8,2.4-3.5,4.3c-0.7,2-0.7,4.1,0,6c0.7,1.8,2,3.3,3.7,4.2
			c1.8,1,4.2,1,6.3,0c2.2-1,3.6-2.9,3.8-5c0.2-2.2-0.8-4.2-2.6-5c-1.9-0.9-4-0.2-5.4,1.6c-0.6,0.8-0.5,1.9,0.3,2.5
			c0.7,0.6,1.8,0.5,2.4-0.3c0.4-0.5,0.9-0.7,1.3-0.5c0.4,0.2,0.7,0.6,0.6,1.5c-0.1,0.8-0.8,1.6-1.8,2.1c-1.1,0.5-2.4,0.6-3.3,0.1
			c-0.9-0.5-1.6-1.3-2-2.3c-0.3-0.8-0.5-2,0-3.5c0.4-1.1,1.4-2.2,3.2-3.3c0.8-0.5,1.6-0.9,2.3-1.4c0.9-0.5,1.8-1,2.5-1.5
			c1.3-0.8,2.5-1.9,3.5-3.3C19.1,9.1,19,8,18.2,7.5z M10.4,9.1c1,0,2-0.4,2.8-1.2c0.7-0.8,1.2-1.8,1.2-2.8C14.4,4,14,3,13.2,2.3
			C12.4,1.4,11.4,1,10.4,1s-2,0.4-2.8,1.2C6.8,2.9,6.4,4,6.4,5c0,1.1,0.4,2.1,1.2,2.8C8.3,8.6,9.3,9.1,10.4,9.1z M9.5,4.2
			C9.7,4,10,3.9,10.3,3.9s0.6,0.1,0.8,0.3c0.2,0.2,0.3,0.5,0.3,0.8s-0.1,0.6-0.3,0.8c-0.2,0.2-0.5,0.3-0.8,0.3S9.7,6,9.5,5.8
			S9.2,5.3,9.2,5S9.3,4.4,9.5,4.2z M34.6,8.5c-0.5-0.1-1.1-0.2-1.5-0.2c-2.8,0-4.8,1.5-4.8,5c0,1.7,0.4,3.2,1.8,3.9
			c-0.8,0.6-1.8,1.7-1.8,2.4c0,0.7,0.6,1.2,1.7,1.5c-1.2,0.7-2.2,1.8-2.2,3.1c0,1.4,0.8,3,4.7,3s5.5-2.1,5.5-4.3
			c0-2.1-1.7-2.9-3.6-3.1c-2.2-0.3-3.7-0.3-3.7-0.8c0-0.4,0.4-0.8,0.8-1.2c0.4,0.1,0.8,0.1,1.3,0.1c3.4,0,4.7-1.8,4.7-4.6
			c0-1.3-0.4-2.3-1.1-3c0.4,0.1,0.8,0.1,1.1,0.1c0.5,0,0.8-0.3,0.8-0.8s-0.1-0.8-0.2-1h-3.5V8.5z M31.9,21.4c0.2,0,0.3,0.1,0.6,0.1
			c2.6,0.2,3.3,0.5,3.3,1.7c0,0.9-0.9,2-3,2c-2,0-2.4-0.7-2.4-1.5C30.3,22.8,31,21.9,31.9,21.4z M33,16.2c-1.8,0-2.1-1.2-2.1-3.1
			c0-2.3,1-3.2,2.2-3.2c1.4,0,2.1,0.8,2.1,2.8C35.2,14.9,34.6,16.2,33,16.2z M45.3,8.3c-2.7,0-4.6,0.3-5.1,0.6
			C40,9,39.9,9.3,39.9,9.6c0,0.2,0,0.9,0.3,1.4c0.9-0.4,2.8-0.6,4.1-0.6c0.9,0,1.5,0.3,1.5,1.6v2.2c-0.6-0.3-1.5-0.3-2.2-0.3
			c-1.9,0-3.8,0.7-3.8,4.3c0,4,2,4.2,4.1,4.2c1.9,0,3.2-0.4,4-0.9c0,0,0.2-3.8,0.2-8.4v-1.5C48.2,9.1,47.1,8.3,45.3,8.3z M45.8,20.1
			c-0.3,0.3-1,0.4-1.6,0.4c-1.1,0-1.9-0.1-1.9-2.4s1-2.7,2.1-2.7c0.4,0,1,0.1,1.4,0.2C45.9,17.6,45.8,20.1,45.8,20.1z M56.1,8.3
			c-1.6,0-3.7,0.4-4.8,0.9V22c2.4,0,2.4,0,2.4-0.4V10.7c0.6-0.4,1.5-0.5,2.2-0.5c1.5,0,1.7,0.8,1.7,2.9V22c2.5,0,2.4,0,2.4-0.4v-8.3
			C60,9.5,59.6,8.3,56.1,8.3z M69,3.4v5.4c-0.5-0.3-1.2-0.5-2.1-0.5c-2.5,0-4.5,2.3-4.5,7.5c0,5.7,2,6.5,4.7,6.5
			c1.8,0,3.2-0.3,4.1-0.8V2.4C69.4,2.4,69,2.4,69,3.4z M69,20c-0.5,0.3-1.1,0.4-1.7,0.4c-1.4,0-2.2-0.6-2.2-4.8
			c0-4.3,1.3-5.4,2.6-5.4c0.6,0,1,0.1,1.3,0.3C69,10.5,69,20,69,20z M75.7,2.5c-0.9,0-1.3,0.6-1.3,1.6c0,1.2,0.4,1.6,1.2,1.7
			c0.9,0,1.3-0.6,1.3-1.7C76.9,3,76.6,2.5,75.7,2.5z M74.4,9.7V22c2.4,0,2.4,0,2.4-0.4V8.7C74.9,8.7,74.4,8.7,74.4,9.7z M81.6,19.1
			c-0.9,0-1.5,0.7-1.5,1.5c0,0.9,0.4,1.5,1.5,1.5c0.9,0,1.5-0.7,1.5-1.5C83,19.7,82.7,19.1,81.6,19.1z M90.8,8.3
			c-1.6,0-3.7,0.4-4.8,0.9V22c2.4,0,2.4,0,2.4-0.4V10.7c0.6-0.4,1.5-0.5,2.2-0.5c1.5,0,1.7,0.8,1.7,2.9V22c2.5,0,2.4,0,2.4-0.4v-8.3
			C94.7,9.5,94.3,8.3,90.8,8.3z M105.9,12.6c0-2.8-1.2-4.3-3.7-4.3c-2.6,0-5.1,0.8-5.1,7.7c0,5.4,1.9,6.3,4.6,6.3c2.2,0,4-0.6,4-1
			c0-0.6-0.1-1.5-0.2-1.9c-1,0.5-2.1,0.8-3.5,0.8c-1.6,0-2.4-0.5-2.5-3.7c1.4,0,4.1-0.1,6.1-0.4C105.8,15.2,105.9,13.8,105.9,12.6z
			 M103.5,14.5c-1,0.3-2.8,0.3-3.9,0.3c0.2-3.7,1.2-4.6,2.4-4.6c1.2,0,1.6,0.8,1.7,2.7C103.6,13.4,103.6,14,103.5,14.5z M113.1,20.5
			c-1,0-1-1-1-2.1v-7.9h2.5c0.5,0,0.5-0.2,0.5-1.9h-3V3.9c-1.9,0-2.3,0-2.3,0.7v4h-1.5c-0.5,0-0.5,0.2-0.5,1.9h2v7.6
			c0,2.4,0,4.2,2.8,4.2c1.1,0,2.5-0.2,2.5-0.8c0-0.5-0.1-1.1-0.2-1.4C114.2,20.3,113.9,20.5,113.1,20.5z"/>
	</g>
</g>
<g id="who" class="st1">
	<path class="st0" d="M131.2,4.5h1.1l2.3,11.1c0.4,2.1,0.6,3.4,0.8,4.9h0.1c0.1-1.7,0.4-3.3,0.7-4.9l1.9-9.7
		c0.1-0.3,0.1-0.5,0.4-0.5h1l2.2,10.1c0.4,2.1,0.5,3.3,0.8,4.9h0.1c0.2-1.3,0.4-3.1,0.7-4.9l2-10.5c0-0.3,0.1-0.5,0.4-0.5h1.1
		l-3.6,17.8c-0.4,0.1-0.6,0.1-1.1,0.1c-0.4,0-0.6-0.5-0.8-1.3l-1.9-8.2c-0.2-0.8-0.6-3.4-0.8-4.8l-0.7,4.8l-2,9.4
		c-0.3,0-0.6,0.1-1.2,0.1c-0.3,0-0.6-0.6-0.8-1.5C133,16.6,130.6,5,130.6,5C130.9,4.7,130.9,4.5,131.2,4.5z"/>
	<path class="st0" d="M148.3,4.3c0-0.7,0.3-0.7,1.4-0.7v6.8c1-0.8,2.2-1.1,3.2-1.1c2.4,0,2.9,1.3,2.9,3.4v9.2c0,0.3-0.1,0.3-1.4,0.3
		V13c0-1.4-0.4-2.4-2-2.4c-0.8,0-1.9,0.3-2.7,1v10.2c0,0.3,0,0.3-1.4,0.3V4.3z"/>
	<path class="st0" d="M162,9.3c2.6,0,3.9,1.4,3.9,6.6c0,4.5-1.5,6.6-4.2,6.6c-2.4,0-3.9-0.8-3.9-6.5C157.8,11.2,159.3,9.3,162,9.3z
		 M161.7,21.2c1.6,0,2.7-1.4,2.7-5.4c0-4.4-0.9-5.3-2.5-5.3s-2.7,1.2-2.7,5.5C159.2,20.4,160.2,21.2,161.7,21.2z"/>
	<path class="st0" d="M166.8,2.4c0.6,0,1,0.3,1,1.2c0,1.6-1.1,4.1-1.5,4.1c-0.3,0-0.5-0.2-0.6-0.5c0.5-0.9,0.6-2.1,0.6-2.9
		c-0.3-0.2-0.5-0.6-0.5-1C165.8,2.8,166.2,2.4,166.8,2.4z"/>
	<path class="st0" d="M174.7,10.6c0,0.2-0.1,0.5-0.3,0.8c-0.9-0.6-1.7-0.8-2.8-0.8c-1.5,0-2.6,0.6-2.6,1.6c0,0.6,0.2,1.1,1.2,1.8
		l2.7,1.9c1.2,1,1.7,1.8,1.7,3.1c0,2.2-1.6,3.4-4.1,3.4c-1.9,0-3.2-0.5-3.2-1.1c0-0.3,0.1-0.6,0.3-0.9c0.8,0.5,1.6,0.7,2.8,0.7
		c1.7,0,2.7-0.6,2.7-1.9c0-1-0.4-1.7-1.4-2.4l-2.7-1.9c-1.4-1-1.7-1.7-1.7-2.6c0-1.8,1.6-2.9,4.1-2.9
		C173.9,9.3,174.7,10.2,174.7,10.6z"/>
	<path class="st0" d="M182.1,9.6l1,4.6c0.7,3.2,1.2,6.3,1.2,6.3h0.1c0.2-1,0.7-3.6,1.1-5.5l0.9-4.6c0-0.3,0.1-0.4,0.5-0.4h0.9l1.1,5
		c0.6,2.6,1.1,5.4,1.1,5.4h0.1c0.1-1.3,0.6-4,1.1-6.3l0.9-4.2c0.1-0.4,0.1-0.4,1.4-0.4c0,0-2.8,12.8-2.9,12.8c0,0-0.4,0.1-0.9,0.1
		c-0.2,0-0.6-0.5-0.8-1.4l-0.4-1.7c-0.7-2.8-1.2-5.7-1.5-7c-0.2,1.4-0.7,4.3-1.4,7.1l-0.7,3.1c0,0-0.7,0.1-1.1,0.1
		c-0.2,0-0.5-0.5-0.6-1.2c-0.8-3.2-2.7-11.2-2.7-11.2C180.5,9.6,180.6,9.6,182.1,9.6z"/>
	<path class="st0" d="M195.3,4.3c0-0.7,0.3-0.7,1.4-0.7v6.8c1-0.8,2.2-1.1,3.2-1.1c2.4,0,2.9,1.3,2.9,3.4v9.2c0,0.3-0.1,0.3-1.4,0.3
		V13c0-1.4-0.4-2.4-2-2.4c-0.8,0-1.9,0.3-2.7,1v10.2c0,0.3,0,0.3-1.4,0.3V4.3z"/>
	<path class="st0" d="M209,9.3c2.6,0,3.9,1.4,3.9,6.6c0,4.5-1.5,6.6-4.2,6.6c-2.4,0-3.9-0.8-3.9-6.5C204.7,11.2,206.3,9.3,209,9.3z
		 M208.7,21.2c1.6,0,2.7-1.4,2.7-5.4c0-4.4-0.9-5.3-2.5-5.3s-2.7,1.2-2.7,5.5C206.2,20.4,207.1,21.2,208.7,21.2z"/>
</g>
</svg>
