<?xml version="1.0" encoding="utf-8"?>
<!-- Generator: Adobe Illustrator 22.0.1, SVG Export Plug-In . SVG Version: 6.00 Build 0)  -->
<svg version="1.1" id="Layer_1" xmlns="http://www.w3.org/2000/svg" xmlns:xlink="http://www.w3.org/1999/xlink" x="0px" y="0px"
	 viewBox="0 0 100 100" style="enable-background:new 0 0 100 100;" xml:space="preserve">
<style type="text/css">
	.st0{fill:#CC0000;}
	.st1{fill:#FFFFFF;}
</style>
<g>
	<path class="st0" d="M50,100C22.4,100,0,77.6,0,50C0,22.4,22.4,0,50,0c27.6,0,50,22.4,50,50C100,77.6,77.6,100,50,100z M50,10.4
		c-21.8,0-39.6,17.8-39.6,39.6S28.2,89.6,50,89.6S89.6,71.8,89.6,50S71.8,10.4,50,10.4z"/>
</g>
<g id="Capa_1">
	<g>
		<path d="M60.3,43.2l3.6-16l-10-3.3l-6.7,14.9c-2.7,1.1-5,3.3-6,6.3l-10,29.9c-0.4,1.1,0.2,2.3,1.3,2.7l16,5.3
			c1.1,0.4,2.3-0.2,2.7-1.3l10-29.9C62.2,48.8,61.7,45.7,60.3,43.2z M43.9,70.4l-5-1.7l6.7-20l5,1.7L43.9,70.4z"/>
	</g>
	<g>
		<rect x="58.8" y="16.5" transform="matrix(0.3176 -0.9482 0.9482 0.3176 20.3911 71.8904)" width="2.6" height="10.5"/>
	</g>
</g>
<g>
	
		<rect x="45.6" y="5.1" transform="matrix(0.7071 -0.7071 0.7071 0.7071 -21.042 50.8004)" class="st0" width="10.4" height="91.4"/>
</g>
<g>
	<path class="st1" d="M11.3,54.2l-4.9-6.5v6.5H5.6v-8.1h1l4.9,6.5v-6.5h0.9v8.1H11.3z"/>
	<path class="st1" d="M20.2,51.2c0,1.8-1.3,3.1-3.1,3.1c-1.8,0-3.1-1.3-3.1-3.1c0-1.8,1.3-3.1,3.1-3.1
		C18.9,48.1,20.2,49.3,20.2,51.2z M14.9,51.2c0,1.3,0.9,2.3,2.2,2.3s2.2-0.9,2.2-2.3c0-1.3-0.9-2.3-2.2-2.3S14.9,49.8,14.9,51.2z"/>
	<path class="st1" d="M31.1,51.2c0,1.8-1.2,3.1-2.9,3.1c-1.1,0-1.9-0.5-2.4-1.3v3.5H25v-8.3h0.9v1.3c0.5-0.9,1.3-1.4,2.3-1.4
		C29.9,48.1,31.1,49.4,31.1,51.2z M30.2,51.2c0-1.3-0.9-2.3-2.2-2.3c-1.3,0-2.2,0.9-2.2,2.3c0,1.3,0.9,2.3,2.2,2.3
		C29.3,53.4,30.2,52.5,30.2,51.2z"/>
	<path class="st1" d="M33.7,46.4c0,0.4-0.3,0.6-0.6,0.6s-0.6-0.3-0.6-0.6s0.3-0.6,0.6-0.6S33.7,46,33.7,46.4z M32.7,54.2v-6.1h0.9
		v6.1H32.7z"/>
	<path class="st1" d="M40.5,49L40,49.6c-0.5-0.4-1.1-0.7-1.8-0.7c-1.3,0-2.2,0.9-2.2,2.2s0.9,2.3,2.2,2.3c0.8,0,1.5-0.3,1.9-0.8
		l0.5,0.6c-0.5,0.7-1.4,1.1-2.4,1.1c-1.8,0-3-1.3-3-3.1s1.3-3.1,3-3.1C39.2,48.1,40,48.4,40.5,49z"/>
	<path class="st1" d="M42.9,53.7c0,0.2-0.1,0.3-0.2,0.5L42.2,55h-0.5l0.4-0.8c-0.2-0.1-0.3-0.3-0.3-0.5c0-0.3,0.2-0.6,0.5-0.6
		C42.6,53.1,42.9,53.3,42.9,53.7z"/>
	<path class="st1" d="M53.3,50.5v3.8h-0.9v-3.5c0-1.1-0.6-1.7-1.7-1.7c-1.2,0-1.9,0.8-2,2v3.3h-0.9v-6.1h0.9v1.3
		c0.4-0.9,1.2-1.4,2.4-1.4C52.4,48.1,53.3,49,53.3,50.5z"/>
	<path class="st1" d="M60.8,51.2c0,1.8-1.3,3.1-3.1,3.1s-3.1-1.3-3.1-3.1c0-1.8,1.3-3.1,3.1-3.1S60.8,49.3,60.8,51.2z M55.6,51.2
		c0,1.3,0.9,2.3,2.2,2.3s2.2-0.9,2.2-2.3c0-1.3-0.9-2.3-2.2-2.3S55.6,49.8,55.6,51.2z"/>
	<path class="st1" d="M71.8,51.2c0,1.8-1.2,3.1-2.9,3.1c-1.1,0-1.9-0.5-2.4-1.3v1.3h-0.9v-8.6h0.9v3.8c0.5-0.9,1.3-1.4,2.3-1.4
		C70.6,48.1,71.8,49.4,71.8,51.2z M70.9,51.2c0-1.3-0.9-2.3-2.2-2.3c-1.3,0-2.2,0.9-2.2,2.3c0,1.3,0.9,2.3,2.2,2.3
		C70,53.4,70.9,52.5,70.9,51.2z"/>
	<path class="st1" d="M78.6,51.5h-5c0.2,1.2,1,1.9,2.2,1.9c0.8,0,1.4-0.3,1.9-0.8l0.5,0.5c-0.6,0.6-1.4,1-2.4,1c-1.8,0-3-1.3-3-3.1
		s1.2-3.1,3-3.1C77.8,48.1,78.7,49.5,78.6,51.5z M77.8,50.8c-0.1-1.2-0.8-1.9-2-1.9c-1.2,0-2,0.8-2.1,1.9H77.8z"/>
	<path class="st1" d="M85.4,51.5h-5c0.2,1.2,1,1.9,2.2,1.9c0.8,0,1.4-0.3,1.9-0.8l0.5,0.5c-0.6,0.6-1.4,1-2.4,1c-1.8,0-3-1.3-3-3.1
		s1.2-3.1,3-3.1C84.5,48.1,85.5,49.5,85.4,51.5z M84.6,50.8c-0.1-1.2-0.8-1.9-2-1.9c-1.2,0-2,0.8-2.1,1.9H84.6z"/>
	<path class="st1" d="M87.9,49.5c0.4-0.9,1.2-1.4,2.2-1.4V49c-1.3,0-2.1,0.8-2.2,2v3.2H87v-6.1h0.9V49.5z"/>
	<path class="st1" d="M95.2,53.7c0,0.3-0.2,0.6-0.6,0.6c-0.3,0-0.6-0.3-0.6-0.6c0-0.3,0.2-0.6,0.6-0.6
		C94.9,53.1,95.2,53.4,95.2,53.7z M94.9,51.8h-0.6l-0.1-3.6v-2H95v2L94.9,51.8z"/>
</g>
</svg>
